<?xml version="1.0" encoding="UTF-8" standalone="no"?>
<!-- Created with Inkscape (http://www.inkscape.org/) -->

<svg
   version="1.1"
   id="svg1"
   width="492.27576"
   height="486.86044"
   viewBox="0 0 492.27575 486.86045"
   sodipodi:docname="coeos.svg"
   inkscape:version="1.4.2 (1:1.4.2+202505120738+ebf0e940d0)"
   xmlns:inkscape="http://www.inkscape.org/namespaces/inkscape"
   xmlns:sodipodi="http://sodipodi.sourceforge.net/DTD/sodipodi-0.dtd"
   xmlns="http://www.w3.org/2000/svg"
   xmlns:svg="http://www.w3.org/2000/svg">
  <sodipodi:namedview
     id="namedview1"
     pagecolor="#ffffff"
     bordercolor="#666666"
     borderopacity="1.0"
     inkscape:showpageshadow="2"
     inkscape:pageopacity="0.0"
     inkscape:pagecheckerboard="0"
     inkscape:deskcolor="#d1d1d1"
     inkscape:zoom="1.7086577"
     inkscape:cx="270.97295"
     inkscape:cy="218.00739"
     inkscape:window-width="3370"
     inkscape:window-height="1376"
     inkscape:window-x="70"
     inkscape:window-y="27"
     inkscape:window-maximized="1"
     inkscape:current-layer="g1">
    <inkscape:page
       x="0"
       y="0"
       inkscape:label="1"
       id="page1"
       width="492.27576"
       height="486.86044"
       margin="0"
       bleed="0" />
  </sodipodi:namedview>
  <defs
     id="defs1">
    <linearGradient
       x1="-6709.8599"
       y1="1680.92"
       x2="-6703.0098"
       y2="1680.92"
       gradientUnits="userSpaceOnUse"
       gradientTransform="matrix(0.137128,31.7723,31.7723,-0.137128,-50453.8,215181)"
       spreadMethod="pad"
       id="linearGradient3">
      <stop
         style="stop-opacity:1;stop-color:#eeeeee"
         offset="0"
         id="stop2" />
      <stop
         style="stop-opacity:1;stop-color:#c0c0c0"
         offset="1"
         id="stop3" />
    </linearGradient>
    <clipPath
       clipPathUnits="userSpaceOnUse"
       id="clipPath3">
      <path
         d="m 2033.75,1979.98 c 89.84,-0.39 162.46,-49.41 162.19,-109.49 -0.24,-60.08 -73.28,-108.47 -163.13,-108.08 -89.84,0.39 -162.5,49.41 -162.22,109.49 0.27,60.08 73.32,108.47 163.16,108.08 z"
         transform="translate(0,2.5000001e-5)"
         id="path3" />
    </clipPath>
    <linearGradient
       x1="-6711.0898"
       y1="1680.92"
       x2="-6701.79"
       y2="1680.92"
       gradientUnits="userSpaceOnUse"
       gradientTransform="matrix(-1.94152,31.7132,31.7132,1.94152,-64330.5,211136)"
       spreadMethod="pad"
       id="linearGradient5">
      <stop
         style="stop-opacity:1;stop-color:#eeeeee"
         offset="0"
         id="stop4" />
      <stop
         style="stop-opacity:1;stop-color:#ffffff"
         offset="1"
         id="stop5" />
    </linearGradient>
    <clipPath
       clipPathUnits="userSpaceOnUse"
       id="clipPath5">
      <path
         d="m 1988.52,1863.77 c 135.78,8.32 249.92,-50.97 254.88,-132.42 5,-81.44 -101.06,-154.22 -236.84,-162.54 -135.82,-8.28 -249.92,50.98 -254.92,132.46 -4.96,81.45 101.06,154.18 236.88,162.5 z"
         transform="translate(0,2.5000001e-5)"
         id="path5" />
    </clipPath>
    <linearGradient
       x1="-6711.9102"
       y1="1680.92"
       x2="-6700.96"
       y2="1680.92"
       gradientUnits="userSpaceOnUse"
       gradientTransform="matrix(8.64414,-30.5741,-30.5741,-8.64414,110782,-188583)"
       spreadMethod="pad"
       id="linearGradient7">
      <stop
         style="stop-opacity:1;stop-color:#ffffff"
         offset="0"
         id="stop6" />
      <stop
         style="stop-opacity:1;stop-color:#c8c8c8"
         offset="1"
         id="stop7" />
    </linearGradient>
    <clipPath
       clipPathUnits="userSpaceOnUse"
       id="clipPath7">
      <path
         d="m 1465,1763.34 c -151.76,-42.93 -295.98,-2.73 -322.11,89.77 -26.13,92.46 75.7,202.19 227.46,245.12 151.76,42.89 295.98,2.73 322.11,-89.77 26.13,-92.46 -75.7,-202.23 -227.46,-245.12 z"
         transform="translate(0,2.5000001e-5)"
         id="path7" />
    </clipPath>
    <linearGradient
       x1="-6708.9399"
       y1="1680.92"
       x2="-6703.9399"
       y2="1680.92"
       gradientUnits="userSpaceOnUse"
       gradientTransform="matrix(-26.7164,17.1968,17.1968,26.7164,-206431,72089.6)"
       spreadMethod="pad"
       id="linearGradient9">
      <stop
         style="stop-opacity:1;stop-color:#eeeeee"
         offset="0"
         id="stop8" />
      <stop
         style="stop-opacity:1;stop-color:#ffffff"
         offset="1"
         id="stop9" />
    </linearGradient>
    <clipPath
       clipPathUnits="userSpaceOnUse"
       id="clipPath9">
      <path
         d="m 1581.17,1711.66 c 35.98,55.82 95,81.84 131.92,58.09 36.91,-23.75 37.73,-88.28 1.75,-144.14 -35.93,-55.82 -95,-81.84 -131.91,-58.09 -36.88,23.79 -37.7,88.32 -1.76,144.14 z"
         transform="translate(0,2.5000001e-5)"
         id="path9" />
    </clipPath>
    <linearGradient
       x1="-6710.4702"
       y1="1680.92"
       x2="-6702.4102"
       y2="1680.92"
       gradientUnits="userSpaceOnUse"
       gradientTransform="matrix(19.5946,25.011,25.011,-19.5946,91962,201721)"
       spreadMethod="pad"
       id="linearGradient11">
      <stop
         style="stop-opacity:1;stop-color:#c1c1c1"
         offset="0"
         id="stop10" />
      <stop
         style="stop-opacity:1;stop-color:#ffffff"
         offset="1"
         id="stop11" />
    </linearGradient>
    <clipPath
       clipPathUnits="userSpaceOnUse"
       id="clipPath11">
      <path
         d="m 2672.23,1149.91 c 72.5,-56.8 95.89,-147.97 52.26,-203.64 -43.59,-55.661 -137.73,-54.758 -210.19,2 -72.5,56.79 -95.9,147.96 -52.27,203.63 43.59,55.7 137.74,54.76 210.2,-1.99 z"
         transform="translate(0,2.5000001e-5)"
         id="path11" />
    </clipPath>
    <linearGradient
       x1="-6709.1699"
       y1="1680.92"
       x2="-6703.7002"
       y2="1680.92"
       gradientUnits="userSpaceOnUse"
       gradientTransform="matrix(5.63835,31.2683,31.2683,-5.63835,-12438.8,219821)"
       spreadMethod="pad"
       id="linearGradient13">
      <stop
         style="stop-opacity:1;stop-color:#c1c1c1"
         offset="0"
         id="stop12" />
      <stop
         style="stop-opacity:1;stop-color:#ffffff"
         offset="1"
         id="stop13" />
    </linearGradient>
    <clipPath
       clipPathUnits="userSpaceOnUse"
       id="clipPath13">
      <path
         d="m 2322.85,729.48 c 98.83,-17.82 172.07,-70.511 163.56,-117.742 -8.52,-47.187 -95.55,-70.968 -194.38,-53.16 -98.83,17.813 -172.07,70.543 -163.55,117.731 8.51,47.191 95.54,70.98 194.37,53.171 z"
         transform="translate(0,2.5000001e-5)"
         id="path13" />
    </clipPath>
    <linearGradient
       x1="-6708.52"
       y1="1685.29"
       x2="-6701.79"
       y2="1680.01"
       gradientUnits="userSpaceOnUse"
       gradientTransform="matrix(26.6714,-17.2665,-17.2665,-26.6714,210396,-70209)"
       spreadMethod="pad"
       id="linearGradient15">
      <stop
         style="stop-opacity:1;stop-color:#c1c1c1"
         offset="0"
         id="stop14" />
      <stop
         style="stop-opacity:1;stop-color:#ffffff"
         offset="1"
         id="stop15" />
    </linearGradient>
    <clipPath
       clipPathUnits="userSpaceOnUse"
       id="clipPath15">
      <path
         d="m 2719.38,614.398 c -56.02,-86.527 -198.83,-93.668 -318.91,-15.898 -120.12,77.73 -172.03,210.941 -116.02,297.461 56.02,86.559 198.79,93.668 318.91,15.937 120.12,-77.738 172.03,-210.937 116.02,-297.5 z"
         transform="translate(0,2.5000001e-5)"
         id="path15" />
    </clipPath>
    <linearGradient
       x1="-6712.5298"
       y1="1680.92"
       x2="-6700.3501"
       y2="1680.92"
       gradientUnits="userSpaceOnUse"
       gradientTransform="matrix(-9.10291,30.4407,30.4407,9.10291,-110660,189996)"
       spreadMethod="pad"
       id="linearGradient18">
      <stop
         style="stop-opacity:1;stop-color:#eeeeee"
         offset="0"
         id="stop17" />
      <stop
         style="stop-opacity:1;stop-color:#c0c0c0"
         offset="1"
         id="stop18" />
    </linearGradient>
    <clipPath
       clipPathUnits="userSpaceOnUse"
       id="clipPath18">
      <path
         d="m 1501.25,1333.77 c 159.84,47.82 314.22,3.56 344.84,-98.86 30.63,-102.39 -74.14,-224.14 -233.94,-271.961 -159.85,-47.769 -314.26,-3.508 -344.88,98.871 -30.63,102.42 74.14,224.14 233.98,271.95 z"
         transform="translate(0,2.5000001e-5)"
         id="path18" />
    </clipPath>
    <linearGradient
       x1="-6711.46"
       y1="1680.92"
       x2="-6701.4102"
       y2="1680.92"
       gradientUnits="userSpaceOnUse"
       gradientTransform="matrix(-9.10291,30.4407,30.4407,9.10291,-111240,189730)"
       spreadMethod="pad"
       id="linearGradient20">
      <stop
         style="stop-opacity:1;stop-color:#eeeeee"
         offset="0"
         id="stop19" />
      <stop
         style="stop-opacity:1;stop-color:#c0c0c0"
         offset="1"
         id="stop20" />
    </linearGradient>
    <clipPath
       clipPathUnits="userSpaceOnUse"
       id="clipPath20">
      <path
         d="m 931.09,1035.26 c 120,35.86 237.74,-3.52 263.01,-88.01 25.24,-84.488 -51.52,-182.07 -171.52,-217.93 -119.959,-35.898 -237.74,3.52 -262.971,88.008 -25.269,84.453 51.481,182.031 171.481,217.932 z"
         transform="translate(0,2.5000001e-5)"
         id="path20" />
    </clipPath>
    <linearGradient
       x1="-6711.23"
       y1="1685.1899"
       x2="-6698.9199"
       y2="1670.84"
       gradientUnits="userSpaceOnUse"
       gradientTransform="matrix(31.6141,3.16996,3.16996,-31.6141,208020,75357.6)"
       spreadMethod="pad"
       id="linearGradient22">
      <stop
         style="stop-opacity:1;stop-color:#eeeeee"
         offset="0"
         id="stop21" />
      <stop
         style="stop-opacity:1;stop-color:#ffffff"
         offset="1"
         id="stop22" />
    </linearGradient>
    <clipPath
       clipPathUnits="userSpaceOnUse"
       id="clipPath22">
      <path
         d="M 1700.12,994.828 C 1718.05,816 1567.03,654.441 1362.77,633.969 1158.52,613.5 978.398,741.859 960.469,920.648 c -17.93,178.832 133.121,340.392 337.381,360.862 204.22,20.47 384.34,-107.89 402.27,-286.682 z"
         transform="translate(0,2.5000001e-5)"
         id="path22" />
    </clipPath>
    <linearGradient
       x1="-6701.6499"
       y1="1688.52"
       x2="-6710.6001"
       y2="1673.8199"
       gradientUnits="userSpaceOnUse"
       gradientTransform="matrix(30.3658,9.34968,9.34968,-30.3658,189042,115017)"
       spreadMethod="pad"
       id="linearGradient24">
      <stop
         style="stop-opacity:1;stop-color:#eeeeee"
         offset="0"
         id="stop23" />
      <stop
         style="stop-opacity:1;stop-color:#ffffff"
         offset="1"
         id="stop24" />
    </linearGradient>
    <clipPath
       clipPathUnits="userSpaceOnUse"
       id="clipPath24">
      <path
         d="m 1303.16,1330.41 c 55.08,-178.86 14.07,-350.191 -91.6,-382.73 -105.66,-32.539 -235.939,86.05 -291.009,264.92 -55.039,178.83 -14.031,350.16 91.599,382.7 105.66,32.54 235.97,-86.06 291.01,-264.89 z"
         transform="translate(0,2.5000001e-5)"
         id="path24" />
    </clipPath>
    <linearGradient
       x1="-6695.3799"
       y1="1680.24"
       x2="-6717.6001"
       y2="1680.7"
       gradientUnits="userSpaceOnUse"
       gradientTransform="matrix(14.5387,-28.2511,-28.2511,-14.5387,146234,-163468)"
       spreadMethod="pad"
       id="linearGradient26">
      <stop
         style="stop-opacity:1;stop-color:#eeeeee"
         offset="0"
         id="stop25" />
      <stop
         style="stop-opacity:1;stop-color:#ffffff"
         offset="1"
         id="stop26" />
    </linearGradient>
    <clipPath
       clipPathUnits="userSpaceOnUse"
       id="clipPath26">
      <path
         d="m 1358.95,1331.98 c -154.18,-79.34 -331.14,-42.74 -395.2,81.79 -64.102,124.53 8.949,289.77 163.16,369.14 154.18,79.34 331.14,42.74 395.2,-81.79 64.1,-124.5 -8.99,-289.77 -163.16,-369.14 z"
         transform="translate(0,2.5000001e-5)"
         id="path26" />
    </clipPath>
    <linearGradient
       x1="-6711.0898"
       y1="1680.92"
       x2="-6701.79"
       y2="1680.92"
       gradientUnits="userSpaceOnUse"
       gradientTransform="matrix(24.7558,-19.916,-19.916,-24.7558,200219,-90379.6)"
       spreadMethod="pad"
       id="linearGradient28">
      <stop
         style="stop-opacity:1;stop-color:#eeeeee"
         offset="0"
         id="stop27" />
      <stop
         style="stop-opacity:1;stop-color:#c0c0c0"
         offset="1"
         id="stop28" />
    </linearGradient>
    <clipPath
       clipPathUnits="userSpaceOnUse"
       id="clipPath28">
      <path
         d="m 833.789,1480.73 c -85.269,-106.02 -205.937,-150.47 -269.527,-99.34 -63.563,51.17 -45.981,178.56 39.289,284.57 85.277,106.02 205.937,150.47 269.539,99.3 63.59,-51.14 46.012,-178.52 -39.301,-284.53 z"
         transform="translate(0,2.5000001e-5)"
         id="path28" />
    </clipPath>
    <linearGradient
       x1="-6710.4902"
       y1="1680.92"
       x2="-6702.3799"
       y2="1680.92"
       gradientUnits="userSpaceOnUse"
       gradientTransform="matrix(18.9403,-25.51,-25.51,-18.9403,170802,-137289)"
       spreadMethod="pad"
       id="linearGradient30">
      <stop
         style="stop-opacity:1;stop-color:#ffffff"
         offset="0"
         id="stop29" />
      <stop
         style="stop-opacity:1;stop-color:#ffffff"
         offset="1"
         id="stop30" />
    </linearGradient>
    <clipPath
       clipPathUnits="userSpaceOnUse"
       id="clipPath30">
      <path
         d="M 976.02,1851.9 C 820.16,1736.16 659.449,1688.66 617.07,1745.73 c -42.379,57.11 49.571,197.18 205.43,312.93 155.859,115.7 316.56,163.2 358.95,106.13 42.38,-57.11 -49.57,-197.19 -205.43,-312.89 z"
         transform="translate(0,2.5000001e-5)"
         id="path30" />
    </clipPath>
    <linearGradient
       x1="-6715.4102"
       y1="1680.92"
       x2="-6697.46"
       y2="1680.92"
       gradientUnits="userSpaceOnUse"
       gradientTransform="matrix(31.6022,-3.28615,-3.28615,-31.6022,219348,33275.3)"
       spreadMethod="pad"
       id="linearGradient32">
      <stop
         style="stop-opacity:1;stop-color:#eeeeee"
         offset="0"
         id="stop31" />
      <stop
         style="stop-opacity:1;stop-color:#ffffff"
         offset="1"
         id="stop32" />
    </linearGradient>
    <clipPath
       clipPathUnits="userSpaceOnUse"
       id="clipPath32">
      <path
         d="m 2170,2163.42 c -9.34,-89.76 -143.91,-149.33 -300.59,-133.01 -156.68,16.29 -276.13,102.23 -266.79,192 9.33,89.76 143.9,149.29 300.58,133 156.68,-16.29 276.14,-102.26 266.8,-191.99 z"
         transform="translate(0,2.5000001e-5)"
         id="path32" />
    </clipPath>
    <linearGradient
       x1="-6709.8599"
       y1="1680.92"
       x2="-6703.0098"
       y2="1680.92"
       gradientUnits="userSpaceOnUse"
       gradientTransform="matrix(22.5634,22.3694,22.3694,-22.5634,116141,189873)"
       spreadMethod="pad"
       id="linearGradient34">
      <stop
         style="stop-opacity:1;stop-color:#ffffff"
         offset="0"
         id="stop33" />
      <stop
         style="stop-opacity:1;stop-color:#ffffff"
         offset="1"
         id="stop34" />
    </linearGradient>
    <clipPath
       clipPathUnits="userSpaceOnUse"
       id="clipPath34">
      <path
         d="m 2499.73,2003.38 c 63.28,-63.79 79.96,-149.8 37.3,-192.11 -42.69,-42.3 -128.55,-24.88 -191.8,38.95 -63.28,63.79 -79.96,149.8 -37.3,192.11 42.69,42.3 128.55,24.88 191.8,-38.95 z"
         transform="translate(0,2.5000001e-5)"
         id="path34" />
    </clipPath>
    <linearGradient
       x1="-6709.9702"
       y1="1680.92"
       x2="-6702.8999"
       y2="1680.92"
       gradientUnits="userSpaceOnUse"
       gradientTransform="matrix(29.8713,10.8261,10.8261,-29.8713,184559,124512)"
       spreadMethod="pad"
       id="linearGradient36">
      <stop
         style="stop-opacity:1;stop-color:#eeeeee"
         offset="0"
         id="stop35" />
      <stop
         style="stop-opacity:1;stop-color:#c0c0c0"
         offset="1"
         id="stop36" />
    </linearGradient>
    <clipPath
       clipPathUnits="userSpaceOnUse"
       id="clipPath36">
      <path
         d="m 2531.99,1734.71 c 33.83,-93.36 14.03,-186.17 -44.26,-207.3 -58.32,-21.14 -133,37.42 -166.83,130.78 -33.83,93.36 -13.99,186.17 44.3,207.3 58.28,21.13 132.96,-37.42 166.79,-130.78 z"
         transform="translate(0,2.5000001e-5)"
         id="path36" />
    </clipPath>
    <linearGradient
       x1="-6709.7998"
       y1="1680.92"
       x2="-6703.0698"
       y2="1680.92"
       gradientUnits="userSpaceOnUse"
       gradientTransform="matrix(27.2859,16.2782,16.2782,-27.2859,157571,155757)"
       spreadMethod="pad"
       id="linearGradient38">
      <stop
         style="stop-opacity:1;stop-color:#eeeeee"
         offset="0"
         id="stop37" />
      <stop
         style="stop-opacity:1;stop-color:#c0c0c0"
         offset="1"
         id="stop38" />
    </linearGradient>
    <clipPath
       clipPathUnits="userSpaceOnUse"
       id="clipPath38">
      <path
         d="m 2033.67,778.148 c 46.21,-77.378 42.54,-164.648 -8.12,-194.878 -50.71,-30.239 -129.22,8 -175.39,85.39 -46.18,77.418 -42.5,164.641 8.16,194.879 50.66,30.231 129.18,-7.969 175.35,-85.391 z"
         transform="translate(0,2.5000001e-5)"
         id="path38" />
    </clipPath>
    <linearGradient
       x1="-6710.8101"
       y1="1680.92"
       x2="-6702.0698"
       y2="1680.92"
       gradientUnits="userSpaceOnUse"
       gradientTransform="matrix(31.6054,-3.25508,-3.25508,-31.6054,217765,32392.9)"
       spreadMethod="pad"
       id="linearGradient40">
      <stop
         style="stop-opacity:1;stop-color:#f9f9f9"
         offset="0"
         id="stop39" />
      <stop
         style="stop-opacity:1;stop-color:#ffffff"
         offset="1"
         id="stop40" />
    </linearGradient>
    <clipPath
       clipPathUnits="userSpaceOnUse"
       id="clipPath40">
      <path
         d="M 471.559,1082.52 C 459.262,963.109 387.461,872.641 311.172,880.488 c -76.293,7.852 -128.16,111.063 -115.863,230.472 12.312,119.45 84.101,209.88 160.39,202.03 76.289,-7.85 128.172,-111.05 115.86,-230.47 z"
         transform="translate(0,2.5000001e-5)"
         id="path40" />
    </clipPath>
    <linearGradient
       x1="-6709.1699"
       y1="1680.92"
       x2="-6703.7002"
       y2="1680.92"
       gradientUnits="userSpaceOnUse"
       gradientTransform="matrix(29.8713,10.8261,10.8261,-29.8713,184900,124246)"
       spreadMethod="pad"
       id="linearGradient43">
      <stop
         style="stop-opacity:1;stop-color:#eeeeee"
         offset="0"
         id="stop42" />
      <stop
         style="stop-opacity:1;stop-color:#ffffff"
         offset="1"
         id="stop43" />
    </linearGradient>
    <clipPath
       clipPathUnits="userSpaceOnUse"
       id="clipPath43">
      <path
         d="m 2849.65,1459.95 c 34.22,-94.42 25.39,-184.22 -19.69,-200.55 -45.08,-16.37 -109.37,46.95 -143.59,141.37 -34.22,94.41 -25.39,184.21 19.68,200.54 45.08,16.37 109.38,-46.95 143.6,-141.36 z"
         transform="translate(0,2.5000001e-5)"
         id="path43" />
    </clipPath>
    <linearGradient
       x1="-6709.5698"
       y1="1680.92"
       x2="-6703.3101"
       y2="1680.92"
       gradientUnits="userSpaceOnUse"
       gradientTransform="matrix(30.2972,9.56956,9.56956,-30.2972,189658,116468)"
       spreadMethod="pad"
       id="linearGradient45">
      <stop
         style="stop-opacity:1;stop-color:#f9f9f9"
         offset="0"
         id="stop44" />
      <stop
         style="stop-opacity:1;stop-color:#ffffff"
         offset="1"
         id="stop45" />
    </linearGradient>
    <clipPath
       clipPathUnits="userSpaceOnUse"
       id="clipPath45">
      <path
         d="m 2652.42,1392.8 c 24.22,-76.68 1.37,-152.31 -51.05,-168.83 -52.39,-16.56 -114.53,32.19 -138.75,108.9 -24.22,76.68 -1.37,152.31 51.01,168.83 52.42,16.57 114.57,-32.18 138.79,-108.9 z"
         transform="translate(0,2.5000001e-5)"
         id="path45" />
    </clipPath>
    <linearGradient
       x1="-6709.8501"
       y1="1680.92"
       x2="-6703.02"
       y2="1680.92"
       gradientUnits="userSpaceOnUse"
       gradientTransform="matrix(-2.86835,31.6429,31.6429,2.86835,-69983.1,207712)"
       spreadMethod="pad"
       id="linearGradient47">
      <stop
         style="stop-opacity:1;stop-color:#bdbdbd"
         offset="0"
         id="stop46" />
      <stop
         style="stop-opacity:1;stop-color:#e5e5e5"
         offset="1"
         id="stop47" />
    </linearGradient>
    <clipPath
       clipPathUnits="userSpaceOnUse"
       id="clipPath47">
      <path
         d="m 2432.7,430.371 c 121.52,11.02 224.41,-28.43 229.8,-88.082 5.43,-59.687 -88.71,-116.988 -210.23,-128.008 -121.53,-11.011 -224.42,28.438 -229.81,88.09 -5.43,59.68 88.71,116.988 210.24,128 z"
         transform="translate(0,2.5000001e-5)"
         id="path47" />
    </clipPath>
    <linearGradient
       x1="-6709.1699"
       y1="1680.92"
       x2="-6703.7002"
       y2="1680.92"
       gradientUnits="userSpaceOnUse"
       gradientTransform="matrix(-9.58511,30.2923,30.2923,9.58511,-114458,187908)"
       spreadMethod="pad"
       id="linearGradient49">
      <stop
         style="stop-opacity:1;stop-color:#f9f9f9"
         offset="0"
         id="stop48" />
      <stop
         style="stop-opacity:1;stop-color:#ffffff"
         offset="1"
         id="stop49" />
    </linearGradient>
    <clipPath
       clipPathUnits="userSpaceOnUse"
       id="clipPath49">
      <path
         d="m 716.289,949.16 c 95.781,30.32 185.121,17.82 199.57,-27.93 14.493,-45.699 -51.41,-107.339 -147.187,-137.609 -95.742,-30.32 -185.082,-17.82 -199.57,27.93 -14.454,45.699 51.449,107.34 147.187,137.609 z"
         transform="translate(0,2.5000001e-5)"
         id="path49" />
    </clipPath>
    <linearGradient
       x1="-6709.1699"
       y1="1680.92"
       x2="-6703.7002"
       y2="1680.92"
       gradientUnits="userSpaceOnUse"
       gradientTransform="matrix(-9.58511,30.2923,30.2923,9.58511,-113624,187559)"
       spreadMethod="pad"
       id="linearGradient51">
      <stop
         style="stop-opacity:1;stop-color:#f9f9f9"
         offset="0"
         id="stop50" />
      <stop
         style="stop-opacity:1;stop-color:#ffffff"
         offset="1"
         id="stop51" />
    </linearGradient>
    <clipPath
       clipPathUnits="userSpaceOnUse"
       id="clipPath51">
      <path
         d="m 1550.35,599.672 c 95.74,30.308 185.08,17.808 199.57,-27.934 14.46,-45.699 -51.44,-107.34 -147.19,-137.617 -95.78,-30.312 -185.11,-17.812 -199.57,27.899 -14.49,45.742 51.41,107.339 147.19,137.652 z"
         transform="translate(0,2.5000001e-5)"
         id="path51" />
    </clipPath>
    <linearGradient
       x1="-6712.2202"
       y1="1680.92"
       x2="-6700.6499"
       y2="1680.92"
       gradientUnits="userSpaceOnUse"
       gradientTransform="matrix(19.5946,25.011,25.011,-19.5946,91628.3,201586)"
       spreadMethod="pad"
       id="linearGradient53">
      <stop
         style="stop-opacity:1;stop-color:#c1c1c1"
         offset="0"
         id="stop52" />
      <stop
         style="stop-opacity:1;stop-color:#ffffff"
         offset="1"
         id="stop53" />
    </linearGradient>
    <clipPath
       clipPathUnits="userSpaceOnUse"
       id="clipPath53">
      <path
         d="m 2373.01,1058.73 c 85.51,-66.949 104.06,-186.011 41.44,-265.929 -62.61,-79.93 -182.65,-90.43 -268.16,-23.442 -85.47,66.993 -104.02,186.051 -41.41,265.981 62.58,79.92 182.66,90.39 268.13,23.39 z"
         transform="translate(0,2.5000001e-5)"
         id="path53" />
    </clipPath>
    <linearGradient
       x1="-6701.4199"
       y1="1679.83"
       x2="-6710.98"
       y2="1678.87"
       gradientUnits="userSpaceOnUse"
       gradientTransform="matrix(33.3947,-26.317,-28.2744,-31.0829,273342,-123141)"
       spreadMethod="pad"
       id="linearGradient55">
      <stop
         style="stop-opacity:1;stop-color:#eeeeee"
         offset="0"
         id="stop54" />
      <stop
         style="stop-opacity:1;stop-color:#ffffff"
         offset="1"
         id="stop55" />
    </linearGradient>
    <clipPath
       clipPathUnits="userSpaceOnUse"
       id="clipPath55">
      <path
         d="M 2010.39,982.449 C 1889.3,849.32 1721.64,796.23 1635.86,863.809 c -85.74,67.621 -57.15,230.281 63.94,363.401 121.06,133.09 288.72,186.17 374.5,118.59 85.78,-67.57 57.15,-230.27 -63.91,-363.351 z"
         transform="translate(0,2.5000001e-5)"
         id="path55" />
    </clipPath>
    <filter
       inkscape:label="Channel Transparency"
       style="color-interpolation-filters:sRGB"
       id="filter5477"
       x="0"
       y="0"
       width="1"
       height="1">
      <feColorMatrix
         values="1 0 0 0 0 0 1 0 0 0 0 0 1 0 0 0.976839 -0.126654 -0.325905 0.208901 0 "
         in="SourceGraphic"
         result="colormatrix"
         id="feColorMatrix5477" />
      <feComposite
         in="colormatrix"
         in2="SourceGraphic"
         operator="in"
         result="fbSourceGraphic"
         id="feComposite5477" />
      <feColorMatrix
         result="fbSourceGraphicAlpha"
         in="fbSourceGraphic"
         values="0 0 0 -1 0 0 0 0 -1 0 0 0 0 -1 0 0 0 0 1 0"
         id="feColorMatrix5505" />
      <feColorMatrix
         id="feColorMatrix5506"
         values="1 0 0 0 0 0 1 0 0 0 0 0 1 0 0 0.976839 -0.126654 -0.325905 0.208901 0 "
         in="fbSourceGraphic"
         result="colormatrix" />
      <feComposite
         id="feComposite5506"
         in="colormatrix"
         in2="fbSourceGraphic"
         operator="in"
         result="composite1" />
    </filter>
    <filter
       inkscape:label="Channel Transparency"
       style="color-interpolation-filters:sRGB"
       id="filter5478"
       x="0"
       y="0"
       width="1"
       height="1">
      <feColorMatrix
         values="1 0 0 0 0 0 1 0 0 0 0 0 1 0 0 0.976839 -0.126654 -0.325905 0.208901 0 "
         in="SourceGraphic"
         result="colormatrix"
         id="feColorMatrix5478" />
      <feComposite
         in="colormatrix"
         in2="SourceGraphic"
         operator="in"
         result="fbSourceGraphic"
         id="feComposite5478" />
      <feColorMatrix
         result="fbSourceGraphicAlpha"
         in="fbSourceGraphic"
         values="0 0 0 -1 0 0 0 0 -1 0 0 0 0 -1 0 0 0 0 1 0"
         id="feColorMatrix5507" />
      <feColorMatrix
         id="feColorMatrix5508"
         values="1 0 0 0 0 0 1 0 0 0 0 0 1 0 0 0.976839 -0.126654 -0.325905 0.208901 0 "
         in="fbSourceGraphic"
         result="colormatrix" />
      <feComposite
         id="feComposite5508"
         in="colormatrix"
         in2="fbSourceGraphic"
         operator="in"
         result="composite1" />
    </filter>
    <filter
       inkscape:label="Channel Transparency"
       style="color-interpolation-filters:sRGB"
       id="filter5479"
       x="0"
       y="0"
       width="1"
       height="1">
      <feColorMatrix
         values="1 0 0 0 0 0 1 0 0 0 0 0 1 0 0 0.976839 -0.126654 -0.325905 0.208901 0 "
         in="SourceGraphic"
         result="colormatrix"
         id="feColorMatrix5479" />
      <feComposite
         in="colormatrix"
         in2="SourceGraphic"
         operator="in"
         result="fbSourceGraphic"
         id="feComposite5479" />
      <feColorMatrix
         result="fbSourceGraphicAlpha"
         in="fbSourceGraphic"
         values="0 0 0 -1 0 0 0 0 -1 0 0 0 0 -1 0 0 0 0 1 0"
         id="feColorMatrix5509" />
      <feColorMatrix
         id="feColorMatrix5510"
         values="1 0 0 0 0 0 1 0 0 0 0 0 1 0 0 0.976839 -0.126654 -0.325905 0.208901 0 "
         in="fbSourceGraphic"
         result="colormatrix" />
      <feComposite
         id="feComposite5510"
         in="colormatrix"
         in2="fbSourceGraphic"
         operator="in"
         result="composite1" />
    </filter>
    <filter
       inkscape:label="Channel Transparency"
       style="color-interpolation-filters:sRGB"
       id="filter5480"
       x="0"
       y="0"
       width="1"
       height="1">
      <feColorMatrix
         values="1 0 0 0 0 0 1 0 0 0 0 0 1 0 0 0.976839 -0.126654 -0.325905 0.208901 0 "
         in="SourceGraphic"
         result="colormatrix"
         id="feColorMatrix5480" />
      <feComposite
         in="colormatrix"
         in2="SourceGraphic"
         operator="in"
         result="fbSourceGraphic"
         id="feComposite5480" />
      <feColorMatrix
         result="fbSourceGraphicAlpha"
         in="fbSourceGraphic"
         values="0 0 0 -1 0 0 0 0 -1 0 0 0 0 -1 0 0 0 0 1 0"
         id="feColorMatrix5511" />
      <feColorMatrix
         id="feColorMatrix5512"
         values="1 0 0 0 0 0 1 0 0 0 0 0 1 0 0 0.976839 -0.126654 -0.325905 0.208901 0 "
         in="fbSourceGraphic"
         result="colormatrix" />
      <feComposite
         id="feComposite5512"
         in="colormatrix"
         in2="fbSourceGraphic"
         operator="in"
         result="composite1" />
    </filter>
    <filter
       inkscape:label="Channel Transparency"
       style="color-interpolation-filters:sRGB"
       id="filter5481"
       x="0"
       y="0"
       width="1"
       height="1">
      <feColorMatrix
         values="1 0 0 0 0 0 1 0 0 0 0 0 1 0 0 0.976839 -0.126654 -0.325905 0.208901 0 "
         in="SourceGraphic"
         result="colormatrix"
         id="feColorMatrix5481" />
      <feComposite
         in="colormatrix"
         in2="SourceGraphic"
         operator="in"
         result="fbSourceGraphic"
         id="feComposite5481" />
      <feColorMatrix
         result="fbSourceGraphicAlpha"
         in="fbSourceGraphic"
         values="0 0 0 -1 0 0 0 0 -1 0 0 0 0 -1 0 0 0 0 1 0"
         id="feColorMatrix5513" />
      <feColorMatrix
         id="feColorMatrix5514"
         values="1 0 0 0 0 0 1 0 0 0 0 0 1 0 0 0.976839 -0.126654 -0.325905 0.208901 0 "
         in="fbSourceGraphic"
         result="colormatrix" />
      <feComposite
         id="feComposite5514"
         in="colormatrix"
         in2="fbSourceGraphic"
         operator="in"
         result="composite1" />
    </filter>
    <filter
       inkscape:label="Channel Transparency"
       style="color-interpolation-filters:sRGB"
       id="filter5482"
       x="0"
       y="0"
       width="1"
       height="1">
      <feColorMatrix
         values="1 0 0 0 0 0 1 0 0 0 0 0 1 0 0 0.976839 -0.126654 -0.325905 0.208901 0 "
         in="SourceGraphic"
         result="colormatrix"
         id="feColorMatrix5482" />
      <feComposite
         in="colormatrix"
         in2="SourceGraphic"
         operator="in"
         result="fbSourceGraphic"
         id="feComposite5482" />
      <feColorMatrix
         result="fbSourceGraphicAlpha"
         in="fbSourceGraphic"
         values="0 0 0 -1 0 0 0 0 -1 0 0 0 0 -1 0 0 0 0 1 0"
         id="feColorMatrix5515" />
      <feColorMatrix
         id="feColorMatrix5516"
         values="1 0 0 0 0 0 1 0 0 0 0 0 1 0 0 0.976839 -0.126654 -0.325905 0.208901 0 "
         in="fbSourceGraphic"
         result="colormatrix" />
      <feComposite
         id="feComposite5516"
         in="colormatrix"
         in2="fbSourceGraphic"
         operator="in"
         result="composite1" />
    </filter>
    <filter
       inkscape:label="Channel Transparency"
       style="color-interpolation-filters:sRGB"
       id="filter5483"
       x="0"
       y="0"
       width="1"
       height="1">
      <feColorMatrix
         values="1 0 0 0 0 0 1 0 0 0 0 0 1 0 0 0.976839 -0.126654 -0.325905 0.208901 0 "
         in="SourceGraphic"
         result="colormatrix"
         id="feColorMatrix5483" />
      <feComposite
         in="colormatrix"
         in2="SourceGraphic"
         operator="in"
         result="fbSourceGraphic"
         id="feComposite5483" />
      <feColorMatrix
         result="fbSourceGraphicAlpha"
         in="fbSourceGraphic"
         values="0 0 0 -1 0 0 0 0 -1 0 0 0 0 -1 0 0 0 0 1 0"
         id="feColorMatrix5517" />
      <feColorMatrix
         id="feColorMatrix5518"
         values="1 0 0 0 0 0 1 0 0 0 0 0 1 0 0 0.976839 -0.126654 -0.325905 0.208901 0 "
         in="fbSourceGraphic"
         result="colormatrix" />
      <feComposite
         id="feComposite5518"
         in="colormatrix"
         in2="fbSourceGraphic"
         operator="in"
         result="composite1" />
    </filter>
    <filter
       inkscape:label="Channel Transparency"
       style="color-interpolation-filters:sRGB"
       id="filter5484"
       x="0"
       y="0"
       width="1"
       height="1">
      <feColorMatrix
         values="1 0 0 0 0 0 1 0 0 0 0 0 1 0 0 0.976839 -0.126654 -0.325905 0.208901 0 "
         in="SourceGraphic"
         result="colormatrix"
         id="feColorMatrix5484" />
      <feComposite
         in="colormatrix"
         in2="SourceGraphic"
         operator="in"
         result="fbSourceGraphic"
         id="feComposite5484" />
      <feColorMatrix
         result="fbSourceGraphicAlpha"
         in="fbSourceGraphic"
         values="0 0 0 -1 0 0 0 0 -1 0 0 0 0 -1 0 0 0 0 1 0"
         id="feColorMatrix5519" />
      <feColorMatrix
         id="feColorMatrix5520"
         values="1 0 0 0 0 0 1 0 0 0 0 0 1 0 0 0.976839 -0.126654 -0.325905 0.208901 0 "
         in="fbSourceGraphic"
         result="colormatrix" />
      <feComposite
         id="feComposite5520"
         in="colormatrix"
         in2="fbSourceGraphic"
         operator="in"
         result="composite1" />
    </filter>
    <filter
       inkscape:label="Channel Transparency"
       style="color-interpolation-filters:sRGB"
       id="filter5485"
       x="0"
       y="0"
       width="1"
       height="1">
      <feColorMatrix
         values="1 0 0 0 0 0 1 0 0 0 0 0 1 0 0 0.976839 -0.126654 -0.325905 0.208901 0 "
         in="SourceGraphic"
         result="colormatrix"
         id="feColorMatrix5485" />
      <feComposite
         in="colormatrix"
         in2="SourceGraphic"
         operator="in"
         result="fbSourceGraphic"
         id="feComposite5485" />
      <feColorMatrix
         result="fbSourceGraphicAlpha"
         in="fbSourceGraphic"
         values="0 0 0 -1 0 0 0 0 -1 0 0 0 0 -1 0 0 0 0 1 0"
         id="feColorMatrix5521" />
      <feColorMatrix
         id="feColorMatrix5522"
         values="1 0 0 0 0 0 1 0 0 0 0 0 1 0 0 0.976839 -0.126654 -0.325905 0.208901 0 "
         in="fbSourceGraphic"
         result="colormatrix" />
      <feComposite
         id="feComposite5522"
         in="colormatrix"
         in2="fbSourceGraphic"
         operator="in"
         result="composite1" />
    </filter>
    <filter
       inkscape:label="Channel Transparency"
       style="color-interpolation-filters:sRGB"
       id="filter5486"
       x="0"
       y="0"
       width="1"
       height="1">
      <feColorMatrix
         values="1 0 0 0 0 0 1 0 0 0 0 0 1 0 0 0.976839 -0.126654 -0.325905 0.208901 0 "
         in="SourceGraphic"
         result="colormatrix"
         id="feColorMatrix5486" />
      <feComposite
         in="colormatrix"
         in2="SourceGraphic"
         operator="in"
         result="fbSourceGraphic"
         id="feComposite5486" />
      <feColorMatrix
         result="fbSourceGraphicAlpha"
         in="fbSourceGraphic"
         values="0 0 0 -1 0 0 0 0 -1 0 0 0 0 -1 0 0 0 0 1 0"
         id="feColorMatrix5523" />
      <feColorMatrix
         id="feColorMatrix5524"
         values="1 0 0 0 0 0 1 0 0 0 0 0 1 0 0 0.976839 -0.126654 -0.325905 0.208901 0 "
         in="fbSourceGraphic"
         result="colormatrix" />
      <feComposite
         id="feComposite5524"
         in="colormatrix"
         in2="fbSourceGraphic"
         operator="in"
         result="composite1" />
    </filter>
    <filter
       inkscape:label="Channel Transparency"
       style="color-interpolation-filters:sRGB"
       id="filter5487"
       x="0"
       y="0"
       width="1"
       height="1">
      <feColorMatrix
         values="1 0 0 0 0 0 1 0 0 0 0 0 1 0 0 0.976839 -0.126654 -0.325905 0.208901 0 "
         in="SourceGraphic"
         result="colormatrix"
         id="feColorMatrix5487" />
      <feComposite
         in="colormatrix"
         in2="SourceGraphic"
         operator="in"
         result="fbSourceGraphic"
         id="feComposite5487" />
      <feColorMatrix
         result="fbSourceGraphicAlpha"
         in="fbSourceGraphic"
         values="0 0 0 -1 0 0 0 0 -1 0 0 0 0 -1 0 0 0 0 1 0"
         id="feColorMatrix5525" />
      <feColorMatrix
         id="feColorMatrix5526"
         values="1 0 0 0 0 0 1 0 0 0 0 0 1 0 0 0.976839 -0.126654 -0.325905 0.208901 0 "
         in="fbSourceGraphic"
         result="colormatrix" />
      <feComposite
         id="feComposite5526"
         in="colormatrix"
         in2="fbSourceGraphic"
         operator="in"
         result="composite1" />
    </filter>
    <filter
       inkscape:label="Channel Transparency"
       style="color-interpolation-filters:sRGB"
       id="filter5488"
       x="0"
       y="0"
       width="1"
       height="1">
      <feColorMatrix
         values="1 0 0 0 0 0 1 0 0 0 0 0 1 0 0 0.976839 -0.126654 -0.325905 0.208901 0 "
         in="SourceGraphic"
         result="colormatrix"
         id="feColorMatrix5488" />
      <feComposite
         in="colormatrix"
         in2="SourceGraphic"
         operator="in"
         result="fbSourceGraphic"
         id="feComposite5488" />
      <feColorMatrix
         result="fbSourceGraphicAlpha"
         in="fbSourceGraphic"
         values="0 0 0 -1 0 0 0 0 -1 0 0 0 0 -1 0 0 0 0 1 0"
         id="feColorMatrix5527" />
      <feColorMatrix
         id="feColorMatrix5528"
         values="1 0 0 0 0 0 1 0 0 0 0 0 1 0 0 0.976839 -0.126654 -0.325905 0.208901 0 "
         in="fbSourceGraphic"
         result="colormatrix" />
      <feComposite
         id="feComposite5528"
         in="colormatrix"
         in2="fbSourceGraphic"
         operator="in"
         result="composite1" />
    </filter>
    <filter
       inkscape:label="Channel Transparency"
       style="color-interpolation-filters:sRGB"
       id="filter5489"
       x="0"
       y="0"
       width="1"
       height="1">
      <feColorMatrix
         values="1 0 0 0 0 0 1 0 0 0 0 0 1 0 0 0.976839 -0.126654 -0.325905 0.208901 0 "
         in="SourceGraphic"
         result="colormatrix"
         id="feColorMatrix5489" />
      <feComposite
         in="colormatrix"
         in2="SourceGraphic"
         operator="in"
         result="fbSourceGraphic"
         id="feComposite5489" />
      <feColorMatrix
         result="fbSourceGraphicAlpha"
         in="fbSourceGraphic"
         values="0 0 0 -1 0 0 0 0 -1 0 0 0 0 -1 0 0 0 0 1 0"
         id="feColorMatrix5529" />
      <feColorMatrix
         id="feColorMatrix5530"
         values="1 0 0 0 0 0 1 0 0 0 0 0 1 0 0 0.976839 -0.126654 -0.325905 0.208901 0 "
         in="fbSourceGraphic"
         result="colormatrix" />
      <feComposite
         id="feComposite5530"
         in="colormatrix"
         in2="fbSourceGraphic"
         operator="in"
         result="composite1" />
    </filter>
    <filter
       inkscape:label="Channel Transparency"
       style="color-interpolation-filters:sRGB"
       id="filter5490"
       x="0"
       y="0"
       width="1"
       height="1">
      <feColorMatrix
         values="1 0 0 0 0 0 1 0 0 0 0 0 1 0 0 0.976839 -0.126654 -0.325905 0.208901 0 "
         in="SourceGraphic"
         result="colormatrix"
         id="feColorMatrix5490" />
      <feComposite
         in="colormatrix"
         in2="SourceGraphic"
         operator="in"
         result="fbSourceGraphic"
         id="feComposite5490" />
      <feColorMatrix
         result="fbSourceGraphicAlpha"
         in="fbSourceGraphic"
         values="0 0 0 -1 0 0 0 0 -1 0 0 0 0 -1 0 0 0 0 1 0"
         id="feColorMatrix5531" />
      <feColorMatrix
         id="feColorMatrix5532"
         values="1 0 0 0 0 0 1 0 0 0 0 0 1 0 0 0.976839 -0.126654 -0.325905 0.208901 0 "
         in="fbSourceGraphic"
         result="colormatrix" />
      <feComposite
         id="feComposite5532"
         in="colormatrix"
         in2="fbSourceGraphic"
         operator="in"
         result="composite1" />
    </filter>
    <filter
       inkscape:label="Channel Transparency"
       style="color-interpolation-filters:sRGB"
       id="filter5491"
       x="0"
       y="0"
       width="1"
       height="1">
      <feColorMatrix
         values="1 0 0 0 0 0 1 0 0 0 0 0 1 0 0 0.976839 -0.126654 -0.325905 0.208901 0 "
         in="SourceGraphic"
         result="colormatrix"
         id="feColorMatrix5491" />
      <feComposite
         in="colormatrix"
         in2="SourceGraphic"
         operator="in"
         result="fbSourceGraphic"
         id="feComposite5491" />
      <feColorMatrix
         result="fbSourceGraphicAlpha"
         in="fbSourceGraphic"
         values="0 0 0 -1 0 0 0 0 -1 0 0 0 0 -1 0 0 0 0 1 0"
         id="feColorMatrix5533" />
      <feColorMatrix
         id="feColorMatrix5534"
         values="1 0 0 0 0 0 1 0 0 0 0 0 1 0 0 0.976839 -0.126654 -0.325905 0.208901 0 "
         in="fbSourceGraphic"
         result="colormatrix" />
      <feComposite
         id="feComposite5534"
         in="colormatrix"
         in2="fbSourceGraphic"
         operator="in"
         result="composite1" />
    </filter>
    <filter
       inkscape:label="Channel Transparency"
       style="color-interpolation-filters:sRGB"
       id="filter5492"
       x="0"
       y="0"
       width="1"
       height="1">
      <feColorMatrix
         values="1 0 0 0 0 0 1 0 0 0 0 0 1 0 0 0.976839 -0.126654 -0.325905 0.208901 0 "
         in="SourceGraphic"
         result="colormatrix"
         id="feColorMatrix5492" />
      <feComposite
         in="colormatrix"
         in2="SourceGraphic"
         operator="in"
         result="fbSourceGraphic"
         id="feComposite5492" />
      <feColorMatrix
         result="fbSourceGraphicAlpha"
         in="fbSourceGraphic"
         values="0 0 0 -1 0 0 0 0 -1 0 0 0 0 -1 0 0 0 0 1 0"
         id="feColorMatrix5535" />
      <feColorMatrix
         id="feColorMatrix5536"
         values="1 0 0 0 0 0 1 0 0 0 0 0 1 0 0 0.976839 -0.126654 -0.325905 0.208901 0 "
         in="fbSourceGraphic"
         result="colormatrix" />
      <feComposite
         id="feComposite5536"
         in="colormatrix"
         in2="fbSourceGraphic"
         operator="in"
         result="composite1" />
    </filter>
    <filter
       inkscape:label="Channel Transparency"
       style="color-interpolation-filters:sRGB"
       id="filter5493"
       x="0"
       y="0"
       width="1"
       height="1">
      <feColorMatrix
         values="1 0 0 0 0 0 1 0 0 0 0 0 1 0 0 0.976839 -0.126654 -0.325905 0.208901 0 "
         in="SourceGraphic"
         result="colormatrix"
         id="feColorMatrix5493" />
      <feComposite
         in="colormatrix"
         in2="SourceGraphic"
         operator="in"
         result="fbSourceGraphic"
         id="feComposite5493" />
      <feColorMatrix
         result="fbSourceGraphicAlpha"
         in="fbSourceGraphic"
         values="0 0 0 -1 0 0 0 0 -1 0 0 0 0 -1 0 0 0 0 1 0"
         id="feColorMatrix5537" />
      <feColorMatrix
         id="feColorMatrix5538"
         values="1 0 0 0 0 0 1 0 0 0 0 0 1 0 0 0.976839 -0.126654 -0.325905 0.208901 0 "
         in="fbSourceGraphic"
         result="colormatrix" />
      <feComposite
         id="feComposite5538"
         in="colormatrix"
         in2="fbSourceGraphic"
         operator="in"
         result="composite1" />
    </filter>
    <filter
       inkscape:label="Channel Transparency"
       style="color-interpolation-filters:sRGB"
       id="filter5494"
       x="0"
       y="0"
       width="1"
       height="1">
      <feColorMatrix
         values="1 0 0 0 0 0 1 0 0 0 0 0 1 0 0 0.976839 -0.126654 -0.325905 0.208901 0 "
         in="SourceGraphic"
         result="colormatrix"
         id="feColorMatrix5494" />
      <feComposite
         in="colormatrix"
         in2="SourceGraphic"
         operator="in"
         result="fbSourceGraphic"
         id="feComposite5494" />
      <feColorMatrix
         result="fbSourceGraphicAlpha"
         in="fbSourceGraphic"
         values="0 0 0 -1 0 0 0 0 -1 0 0 0 0 -1 0 0 0 0 1 0"
         id="feColorMatrix5539" />
      <feColorMatrix
         id="feColorMatrix5540"
         values="1 0 0 0 0 0 1 0 0 0 0 0 1 0 0 0.976839 -0.126654 -0.325905 0.208901 0 "
         in="fbSourceGraphic"
         result="colormatrix" />
      <feComposite
         id="feComposite5540"
         in="colormatrix"
         in2="fbSourceGraphic"
         operator="in"
         result="composite1" />
    </filter>
    <filter
       inkscape:label="Channel Transparency"
       style="color-interpolation-filters:sRGB"
       id="filter5495"
       x="0"
       y="0"
       width="1"
       height="1">
      <feColorMatrix
         values="1 0 0 0 0 0 1 0 0 0 0 0 1 0 0 0.976839 -0.126654 -0.325905 0.208901 0 "
         in="SourceGraphic"
         result="colormatrix"
         id="feColorMatrix5495" />
      <feComposite
         in="colormatrix"
         in2="SourceGraphic"
         operator="in"
         result="fbSourceGraphic"
         id="feComposite5495" />
      <feColorMatrix
         result="fbSourceGraphicAlpha"
         in="fbSourceGraphic"
         values="0 0 0 -1 0 0 0 0 -1 0 0 0 0 -1 0 0 0 0 1 0"
         id="feColorMatrix5541" />
      <feColorMatrix
         id="feColorMatrix5542"
         values="1 0 0 0 0 0 1 0 0 0 0 0 1 0 0 0.976839 -0.126654 -0.325905 0.208901 0 "
         in="fbSourceGraphic"
         result="colormatrix" />
      <feComposite
         id="feComposite5542"
         in="colormatrix"
         in2="fbSourceGraphic"
         operator="in"
         result="composite1" />
    </filter>
    <filter
       inkscape:label="Channel Transparency"
       style="color-interpolation-filters:sRGB"
       id="filter5496"
       x="0"
       y="0"
       width="1"
       height="1">
      <feColorMatrix
         values="1 0 0 0 0 0 1 0 0 0 0 0 1 0 0 0.976839 -0.126654 -0.325905 0.208901 0 "
         in="SourceGraphic"
         result="colormatrix"
         id="feColorMatrix5496" />
      <feComposite
         in="colormatrix"
         in2="SourceGraphic"
         operator="in"
         result="fbSourceGraphic"
         id="feComposite5496" />
      <feColorMatrix
         result="fbSourceGraphicAlpha"
         in="fbSourceGraphic"
         values="0 0 0 -1 0 0 0 0 -1 0 0 0 0 -1 0 0 0 0 1 0"
         id="feColorMatrix5543" />
      <feColorMatrix
         id="feColorMatrix5544"
         values="1 0 0 0 0 0 1 0 0 0 0 0 1 0 0 0.976839 -0.126654 -0.325905 0.208901 0 "
         in="fbSourceGraphic"
         result="colormatrix" />
      <feComposite
         id="feComposite5544"
         in="colormatrix"
         in2="fbSourceGraphic"
         operator="in"
         result="composite1" />
    </filter>
    <filter
       inkscape:label="Channel Transparency"
       style="color-interpolation-filters:sRGB"
       id="filter5497"
       x="0"
       y="0"
       width="1"
       height="1">
      <feColorMatrix
         values="1 0 0 0 0 0 1 0 0 0 0 0 1 0 0 0.976839 -0.126654 -0.325905 0.208901 0 "
         in="SourceGraphic"
         result="colormatrix"
         id="feColorMatrix5497" />
      <feComposite
         in="colormatrix"
         in2="SourceGraphic"
         operator="in"
         result="fbSourceGraphic"
         id="feComposite5497" />
      <feColorMatrix
         result="fbSourceGraphicAlpha"
         in="fbSourceGraphic"
         values="0 0 0 -1 0 0 0 0 -1 0 0 0 0 -1 0 0 0 0 1 0"
         id="feColorMatrix5545" />
      <feColorMatrix
         id="feColorMatrix5546"
         values="1 0 0 0 0 0 1 0 0 0 0 0 1 0 0 0.976839 -0.126654 -0.325905 0.208901 0 "
         in="fbSourceGraphic"
         result="colormatrix" />
      <feComposite
         id="feComposite5546"
         in="colormatrix"
         in2="fbSourceGraphic"
         operator="in"
         result="composite1" />
    </filter>
    <filter
       inkscape:label="Channel Transparency"
       style="color-interpolation-filters:sRGB"
       id="filter5498"
       x="0"
       y="0"
       width="1"
       height="1">
      <feColorMatrix
         values="1 0 0 0 0 0 1 0 0 0 0 0 1 0 0 0.976839 -0.126654 -0.325905 0.208901 0 "
         in="SourceGraphic"
         result="colormatrix"
         id="feColorMatrix5498" />
      <feComposite
         in="colormatrix"
         in2="SourceGraphic"
         operator="in"
         result="fbSourceGraphic"
         id="feComposite5498" />
      <feColorMatrix
         result="fbSourceGraphicAlpha"
         in="fbSourceGraphic"
         values="0 0 0 -1 0 0 0 0 -1 0 0 0 0 -1 0 0 0 0 1 0"
         id="feColorMatrix5547" />
      <feColorMatrix
         id="feColorMatrix5548"
         values="1 0 0 0 0 0 1 0 0 0 0 0 1 0 0 0.976839 -0.126654 -0.325905 0.208901 0 "
         in="fbSourceGraphic"
         result="colormatrix" />
      <feComposite
         id="feComposite5548"
         in="colormatrix"
         in2="fbSourceGraphic"
         operator="in"
         result="composite1" />
    </filter>
    <filter
       inkscape:label="Channel Transparency"
       style="color-interpolation-filters:sRGB"
       id="filter5499"
       x="0"
       y="0"
       width="1"
       height="1">
      <feColorMatrix
         values="1 0 0 0 0 0 1 0 0 0 0 0 1 0 0 0.976839 -0.126654 -0.325905 0.208901 0 "
         in="SourceGraphic"
         result="colormatrix"
         id="feColorMatrix5499" />
      <feComposite
         in="colormatrix"
         in2="SourceGraphic"
         operator="in"
         result="fbSourceGraphic"
         id="feComposite5499" />
      <feColorMatrix
         result="fbSourceGraphicAlpha"
         in="fbSourceGraphic"
         values="0 0 0 -1 0 0 0 0 -1 0 0 0 0 -1 0 0 0 0 1 0"
         id="feColorMatrix5549" />
      <feColorMatrix
         id="feColorMatrix5550"
         values="1 0 0 0 0 0 1 0 0 0 0 0 1 0 0 0.976839 -0.126654 -0.325905 0.208901 0 "
         in="fbSourceGraphic"
         result="colormatrix" />
      <feComposite
         id="feComposite5550"
         in="colormatrix"
         in2="fbSourceGraphic"
         operator="in"
         result="composite1" />
    </filter>
    <filter
       inkscape:label="Channel Transparency"
       style="color-interpolation-filters:sRGB"
       id="filter5500"
       x="0"
       y="0"
       width="1"
       height="1">
      <feColorMatrix
         values="1 0 0 0 0 0 1 0 0 0 0 0 1 0 0 0.976839 -0.126654 -0.325905 0.208901 0 "
         in="SourceGraphic"
         result="colormatrix"
         id="feColorMatrix5500" />
      <feComposite
         in="colormatrix"
         in2="SourceGraphic"
         operator="in"
         result="fbSourceGraphic"
         id="feComposite5500" />
      <feColorMatrix
         result="fbSourceGraphicAlpha"
         in="fbSourceGraphic"
         values="0 0 0 -1 0 0 0 0 -1 0 0 0 0 -1 0 0 0 0 1 0"
         id="feColorMatrix5551" />
      <feColorMatrix
         id="feColorMatrix5552"
         values="1 0 0 0 0 0 1 0 0 0 0 0 1 0 0 0.976839 -0.126654 -0.325905 0.208901 0 "
         in="fbSourceGraphic"
         result="colormatrix" />
      <feComposite
         id="feComposite5552"
         in="colormatrix"
         in2="fbSourceGraphic"
         operator="in"
         result="composite1" />
    </filter>
    <filter
       inkscape:label="Channel Transparency"
       style="color-interpolation-filters:sRGB"
       id="filter5501"
       x="0"
       y="0"
       width="1"
       height="1">
      <feColorMatrix
         values="1 0 0 0 0 0 1 0 0 0 0 0 1 0 0 0.976839 -0.126654 -0.325905 0.208901 0 "
         in="SourceGraphic"
         result="colormatrix"
         id="feColorMatrix5501" />
      <feComposite
         in="colormatrix"
         in2="SourceGraphic"
         operator="in"
         result="fbSourceGraphic"
         id="feComposite5501" />
      <feColorMatrix
         result="fbSourceGraphicAlpha"
         in="fbSourceGraphic"
         values="0 0 0 -1 0 0 0 0 -1 0 0 0 0 -1 0 0 0 0 1 0"
         id="feColorMatrix5553" />
      <feColorMatrix
         id="feColorMatrix5554"
         values="1 0 0 0 0 0 1 0 0 0 0 0 1 0 0 0.976839 -0.126654 -0.325905 0.208901 0 "
         in="fbSourceGraphic"
         result="colormatrix" />
      <feComposite
         id="feComposite5554"
         in="colormatrix"
         in2="fbSourceGraphic"
         operator="in"
         result="composite1" />
    </filter>
    <filter
       inkscape:label="Channel Transparency"
       style="color-interpolation-filters:sRGB"
       id="filter5502"
       x="0"
       y="0"
       width="1"
       height="1">
      <feColorMatrix
         values="1 0 0 0 0 0 1 0 0 0 0 0 1 0 0 0.976839 -0.126654 -0.325905 0.208901 0 "
         in="SourceGraphic"
         result="colormatrix"
         id="feColorMatrix5502" />
      <feComposite
         in="colormatrix"
         in2="SourceGraphic"
         operator="in"
         result="fbSourceGraphic"
         id="feComposite5502" />
      <feColorMatrix
         result="fbSourceGraphicAlpha"
         in="fbSourceGraphic"
         values="0 0 0 -1 0 0 0 0 -1 0 0 0 0 -1 0 0 0 0 1 0"
         id="feColorMatrix5555" />
      <feColorMatrix
         id="feColorMatrix5556"
         values="1 0 0 0 0 0 1 0 0 0 0 0 1 0 0 0.976839 -0.126654 -0.325905 0.208901 0 "
         in="fbSourceGraphic"
         result="colormatrix" />
      <feComposite
         id="feComposite5556"
         in="colormatrix"
         in2="fbSourceGraphic"
         operator="in"
         result="composite1" />
    </filter>
    <filter
       inkscape:label="Channel Transparency"
       style="color-interpolation-filters:sRGB"
       id="filter5503"
       x="0"
       y="0"
       width="1"
       height="1">
      <feColorMatrix
         values="1 0 0 0 0 0 1 0 0 0 0 0 1 0 0 0.976839 -0.126654 -0.325905 0.208901 0 "
         in="SourceGraphic"
         result="colormatrix"
         id="feColorMatrix5503" />
      <feComposite
         in="colormatrix"
         in2="SourceGraphic"
         operator="in"
         result="fbSourceGraphic"
         id="feComposite5503" />
      <feColorMatrix
         result="fbSourceGraphicAlpha"
         in="fbSourceGraphic"
         values="0 0 0 -1 0 0 0 0 -1 0 0 0 0 -1 0 0 0 0 1 0"
         id="feColorMatrix5557" />
      <feColorMatrix
         id="feColorMatrix5558"
         values="1 0 0 0 0 0 1 0 0 0 0 0 1 0 0 0.976839 -0.126654 -0.325905 0.208901 0 "
         in="fbSourceGraphic"
         result="colormatrix" />
      <feComposite
         id="feComposite5558"
         in="colormatrix"
         in2="fbSourceGraphic"
         operator="in"
         result="composite1" />
    </filter>
    <filter
       inkscape:label="Channel Transparency"
       style="color-interpolation-filters:sRGB"
       id="filter5504"
       x="0"
       y="0"
       width="1"
       height="1">
      <feColorMatrix
         values="1 0 0 0 0 0 1 0 0 0 0 0 1 0 0 0.976839 -0.126654 -0.325905 0.208901 0 "
         in="SourceGraphic"
         result="colormatrix"
         id="feColorMatrix5504" />
      <feComposite
         in="colormatrix"
         in2="SourceGraphic"
         operator="in"
         result="fbSourceGraphic"
         id="feComposite5504" />
      <feColorMatrix
         result="fbSourceGraphicAlpha"
         in="fbSourceGraphic"
         values="0 0 0 -1 0 0 0 0 -1 0 0 0 0 -1 0 0 0 0 1 0"
         id="feColorMatrix5559" />
      <feColorMatrix
         id="feColorMatrix5560"
         values="1 0 0 0 0 0 1 0 0 0 0 0 1 0 0 0.976839 -0.126654 -0.325905 0.208901 0 "
         in="fbSourceGraphic"
         result="colormatrix" />
      <feComposite
         id="feComposite5560"
         in="colormatrix"
         in2="fbSourceGraphic"
         operator="in"
         result="composite1" />
    </filter>
  </defs>
  <g
     id="g1"
     inkscape:groupmode="layer"
     inkscape:label="1"
     transform="translate(30.538986,41.801036)">
    <path
       id="path2"
       d="m 2033.75,1979.98 c 213.817,54.6396 155.4902,-313.2337 -35.8666,-217.0402 -185.7221,3.7098 -131.7048,254.0723 35.8666,217.0402 z"
       style="fill:url(#linearGradient3);fill-opacity:1;fill-rule:nonzero;stroke:none;filter:url(#filter5477)"
       clip-path="url(#clipPath3)"
       transform="matrix(0.13333333,0,0,-0.13333333,0,342.66667)" />
    <path
       id="path4"
       d="m 1988.52,1863.77 c 177.6331,81.3108 359.958,-220.1091 131.7262,-271.7435 -113.7071,-43.4594 -276.3679,-41.7431 -349.5268,70.0852 -62.155,133.7871 117.714,197.4248 217.8006,201.6583 z"
       style="fill:url(#linearGradient5);fill-opacity:1;fill-rule:nonzero;stroke:none;filter:url(#filter5478)"
       clip-path="url(#clipPath5)"
       transform="matrix(0.13333333,0,0,-0.13333333,0,342.66667)" />
    <path
       id="path6"
       d="m 1465,1763.34 c -135.7788,-82.3392 -422.1463,46.4529 -283.9219,216.1329 108.3188,134.9068 315.8278,174.0748 468.1887,94.5036 C 1775.3296,1939.6524 1597.2319,1786.0422 1465,1763.34 Z"
       style="fill:url(#linearGradient7);fill-opacity:1;fill-rule:nonzero;stroke:none;filter:url(#filter5479)"
       clip-path="url(#clipPath7)"
       transform="matrix(0.13333333,0,0,-0.13333333,0,342.66667)" />
    <path
       id="path8"
       d="m 1581.17,1711.66 c 103.0523,193.5955 256.6792,-142.8001 52.5133,-152.8853 -81.8271,-16.9824 -100.9392,109.1652 -52.5133,152.8853 z"
       style="fill:url(#linearGradient9);fill-opacity:1;fill-rule:nonzero;stroke:none;filter:url(#filter5480)"
       clip-path="url(#clipPath9)"
       transform="matrix(0.13333333,0,0,-0.13333333,0,342.66667)" />
    <path
       id="path10"
       d="M 2672.23,1149.91 C 2864.4246,1057.7669 2620.6791,782.03248 2498.5859,954.77197 2347.5,1060.1465 2543.8285,1304.771 2672.23,1149.91 Z"
       style="fill:url(#linearGradient11);fill-opacity:1;fill-rule:nonzero;stroke:none;filter:url(#filter5481)"
       clip-path="url(#clipPath11)"
       transform="matrix(0.13333333,0,0,-0.13333333,0,342.66667)" />
    <path
       id="path12"
       d="m 2322.85,729.48 c 154.3223,40.19497 202.1755,-235.7123 15.2154,-183.06293 -140.4382,-40.60274 -291.7632,204.62218 -76.7777,188.99299 20.6453,-0.17893 41.2388,-2.37091 61.5623,-5.93006 z"
       style="fill:url(#linearGradient13);fill-opacity:1;fill-rule:nonzero;stroke:none;filter:url(#filter5482)"
       clip-path="url(#clipPath13)"
       transform="matrix(0.13333333,0,0,-0.13333333,0,342.66667)" />
    <path
       id="path14"
       d="m 2719.38,614.398 c -119.6499,-136.79356 -338.0844,-49.2771 -422.5651,83.61404 -128.4705,158.47228 99.286,352.11206 253.039,243.05632 120.9757,-49.44604 238.9038,-192.5493 169.5261,-326.67036 z"
       style="fill:url(#linearGradient15);fill-opacity:1;fill-rule:nonzero;stroke:none;filter:url(#filter5483)"
       clip-path="url(#clipPath15)"
       transform="matrix(0.13333333,0,0,-0.13333333,0,342.66667)" />
    <path
       id="path16"
       d="m 246.86933,179.32001 c 25.46658,5.5228 14.56853,49.43424 -9.5116,30.25867 -17.72791,-3.19531 -39.42082,-41.13954 -9.3136,-39.38254 6.89617,1.51631 13.02563,5.24832 18.8252,9.12387 z"
       style="fill:#eeeeee;fill-opacity:1;fill-rule:nonzero;stroke:none;stroke-width:0.133333;filter:url(#filter5484)" />
    <path
       id="path17"
       d="m 1501.25,1333.77 c 116.6635,50.5764 299.0761,22.5258 344.4891,-111.0906 11.4693,-150.9187 -150.0241,-250.85785 -282.1773,-272.79672 -117.1253,-21.2756 -309.3588,7.90336 -296.526,164.90032 15.9284,118.3399 126.5168,191.7433 234.2142,218.987 z"
       style="fill:url(#linearGradient18);fill-opacity:1;fill-rule:nonzero;stroke:none;filter:url(#filter5485)"
       clip-path="url(#clipPath18)"
       transform="matrix(0.13333333,0,0,-0.13333333,0,342.66667)" />
    <path
       id="path19"
       d="m 931.09,1035.26 c 160.332,92.3522 381.6526,-130.32665 192.4607,-254.47609 C 1020.947,690.00456 811.16836,682.41865 757.50033,828.58147 740.26568,931.85346 843.32245,1009.5539 931.09,1035.26 Z"
       style="fill:url(#linearGradient20);fill-opacity:1;fill-rule:nonzero;stroke:none;filter:url(#filter5486)"
       clip-path="url(#clipPath20)"
       transform="matrix(0.13333333,0,0,-0.13333333,0,342.66667)" />
    <path
       id="path21"
       d="m 1700.12,994.828 c 23.3468,-259.84341 -291.634,-432.95288 -517.4092,-342.13374 -180.0633,56.35611 -293.21781,293.61122 -177.4016,456.78374 148.1513,249.8377 603.1302,227.8748 685.7723,-66.3938 4.3868,-15.7868 7.4325,-31.9489 9.0385,-48.2562 z"
       style="fill:url(#linearGradient22);fill-opacity:1;fill-rule:nonzero;stroke:none;filter:url(#filter5487)"
       clip-path="url(#clipPath22)"
       transform="matrix(0.13333333,0,0,-0.13333333,0,342.66667)" />
    <path
       id="path23"
       d="m 1303.16,1330.41 c 41.9918,-120.6976 46.6044,-295.2392 -75.3661,-370.68611 -130.8875,-50.30971 -241.79264,84.90551 -286.40386,193.06661 -39.94871,109.005 -66.20562,236.2546 -27.94332,348.5521 87.01498,163.4246 313.51488,77.2758 351.12628,-77.621 15.4392,-29.9555 28.2151,-61.2564 38.587,-93.3116 z"
       style="fill:url(#linearGradient24);fill-opacity:1;fill-rule:nonzero;stroke:none;filter:url(#filter5488)"
       clip-path="url(#clipPath24)"
       transform="matrix(0.13333333,0,0,-0.13333333,0,342.66667)" />
    <path
       id="path25"
       d="m 1358.95,1331.98 c -143.5469,-95.8021 -403.18513,-30.2335 -417.3505,162.1346 -16.24019,270.306 382.989,449.0867 562.2301,236.3506 105.1193,-138.8791 -5.5021,-334.7172 -144.8796,-398.4852 z"
       style="fill:url(#linearGradient26);fill-opacity:1;fill-rule:nonzero;stroke:none;filter:url(#filter5489)"
       clip-path="url(#clipPath26)"
       transform="matrix(0.13333333,0,0,-0.13333333,0,342.66667)" />
    <path
       id="path27"
       d="m 833.789,1480.73 c -59.46261,-186.0942 -405.10458,-117.9959 -289.61401,85.5367 44.40888,113.3362 155.18447,232.4629 287.12529,211.2607 140.76538,-44.1111 66.77709,-219.9515 2.48872,-296.7974 z"
       style="fill:url(#linearGradient28);fill-opacity:1;fill-rule:nonzero;stroke:none;filter:url(#filter5490)"
       clip-path="url(#clipPath28)"
       transform="matrix(0.13333333,0,0,-0.13333333,0,342.66667)" />
    <path
       id="path29"
       d="m 976.02,1851.9 c -84.67949,-76.5307 -352.74128,-224.0525 -354.1668,-24.4343 71.35778,169.9582 244.00223,266.6667 397.5492,350.4332 143.16,60.211 221.1326,-107.6886 100.3078,-192.5847 -41.572,-50.7569 -91.6712,-93.7577 -143.6902,-133.4142 z"
       style="fill:url(#linearGradient30);fill-opacity:1;fill-rule:nonzero;stroke:none;filter:url(#filter5491)"
       clip-path="url(#clipPath30)"
       transform="matrix(0.13333333,0,0,-0.13333333,0,342.66667)" />
    <path
       id="path31"
       d="m 2170,2163.42 c -60.7761,-154.1795 -258.1839,-154.6934 -393.2728,-114.8121 -207.006,-0.4967 -214.0458,319.1173 1.1811,302.4923 143.0492,27.6102 348.2028,-16.8227 391.9547,-173.8501 l 0.079,-7.9729 z"
       style="fill:url(#linearGradient32);fill-opacity:1;fill-rule:nonzero;stroke:none;filter:url(#filter5492)"
       clip-path="url(#clipPath32)"
       transform="matrix(0.13333333,0,0,-0.13333333,0,342.66667)" />
    <path
       id="path33"
       d="m 2499.73,2003.38 c 189.8737,-112.5472 -111.5398,-331.4413 -178.8274,-128.0943 -128.7184,133.9352 86.5487,272.7969 178.8274,128.0943 z"
       style="fill:url(#linearGradient34);fill-opacity:1;fill-rule:nonzero;stroke:none;filter:url(#filter5493)"
       clip-path="url(#clipPath34)"
       transform="matrix(0.13333333,0,0,-0.13333333,0,342.66667)" />
    <path
       id="path35"
       d="m 2531.99,1734.71 c 127.3652,-168.5416 -201.797,-285.8198 -215.8015,-80.7959 -101.653,144.2457 153.1622,307.9977 201.4131,113.2646 6.0116,-10.2512 9.5952,-21.646 14.3884,-32.4687 z"
       style="fill:url(#linearGradient36);fill-opacity:1;fill-rule:nonzero;stroke:none;filter:url(#filter5494)"
       clip-path="url(#clipPath36)"
       transform="matrix(0.13333333,0,0,-0.13333333,0,342.66667)" />
    <path
       id="path37"
       d="M 2033.67,778.148 C 2171.7052,644.43506 1909.1058,477.91397 1843.7472,660.84611 1738.0762,803.37053 1959.6841,974.17313 2033.67,778.148 Z"
       style="fill:url(#linearGradient38);fill-opacity:1;fill-rule:nonzero;stroke:none;filter:url(#filter5495)"
       clip-path="url(#clipPath38)"
       transform="matrix(0.13333333,0,0,-0.13333333,0,342.66667)" />
    <path
       id="path39"
       d="m 471.559,1082.52 c 50.86908,-175.82893 -274.01186,-274.94288 -271.77565,-65.8936 -80.09262,157.6873 162.32843,430.0497 257.67306,198.5239 15.07928,-42.3326 18.16923,-88.1393 14.10259,-132.6303 z"
       style="fill:url(#linearGradient40);fill-opacity:1;fill-rule:nonzero;stroke:none;filter:url(#filter5496)"
       clip-path="url(#clipPath40)"
       transform="matrix(0.13333333,0,0,-0.13333333,0,342.66667)" />
    <path
       id="path41"
       d="m 59.828132,152.55467 c -8.954601,22.36451 -13.434813,-17.83482 -0.255946,-7.82544 1.255728,2.39692 1.329957,5.34846 0.255946,7.82544 z"
       style="fill:#c5c5c5;fill-opacity:1;fill-rule:nonzero;stroke:none;stroke-width:0.133333;filter:url(#filter5497)" />
    <path
       id="path42"
       d="m 2849.65,1459.95 c 112.2329,-113.2624 -102.3116,-293.2032 -150.679,-105.1029 -105.625,101.0566 30.4366,355.0615 124.8936,161.3201 10.2133,-17.9435 18.6589,-36.8537 25.7854,-56.2172 z"
       style="fill:url(#linearGradient43);fill-opacity:1;fill-rule:nonzero;stroke:none;filter:url(#filter5498)"
       clip-path="url(#clipPath43)"
       transform="matrix(0.13333333,0,0,-0.13333333,0,342.66667)" />
    <path
       id="path44"
       d="m 2652.42,1392.8 c 99.7253,-166.9323 -218.5467,-227.6983 -205.2958,-34.939 -37.9626,141.9833 199.2317,196.8015 205.2958,34.939 z"
       style="fill:url(#linearGradient45);fill-opacity:1;fill-rule:nonzero;stroke:none;filter:url(#filter5499)"
       clip-path="url(#clipPath45)"
       transform="matrix(0.13333333,0,0,-0.13333333,0,342.66667)" />
    <path
       id="path46"
       d="m 2432.7,430.371 c 139.1775,89.87995 325.2103,-173.874 112.0695,-195.94663 -98.0124,-71.71404 -405.9584,-3.7331 -271.5699,146.91504 47.4145,30.97184 104.3702,41.44963 159.5004,49.03159 z"
       style="fill:url(#linearGradient47);fill-opacity:1;fill-rule:nonzero;stroke:none;filter:url(#filter5500)"
       clip-path="url(#clipPath47)"
       transform="matrix(0.13333333,0,0,-0.13333333,0,342.66667)" />
    <path
       id="path48"
       d="m 716.289,949.16 c 117.77809,107.5093 288.7507,-114.2935 98.79794,-154.85417 -105.32734,-101.36399 -353.51732,45.0361 -156.02871,131.4226 18.34859,9.46126 37.59029,17.11568 57.23077,23.43157 z"
       style="fill:url(#linearGradient49);fill-opacity:1;fill-rule:nonzero;stroke:none;filter:url(#filter5501)"
       clip-path="url(#clipPath49)"
       transform="matrix(0.13333333,0,0,-0.13333333,0,342.66667)" />
    <path
       id="path50"
       d="m 1550.35,599.672 c 117.79,107.49025 288.7211,-114.31045 98.7793,-154.86283 -105.33,-101.3716 -353.5215,45.03465 -156.0231,131.41755 18.3537,9.46373 37.5999,17.12167 57.2438,23.44528 z"
       style="fill:url(#linearGradient51);fill-opacity:1;fill-rule:nonzero;stroke:none;filter:url(#filter5502)"
       clip-path="url(#clipPath51)"
       transform="matrix(0.13333333,0,0,-0.13333333,0,342.66667)" />
    <path
       id="path52"
       d="m 2373.01,1058.73 c 161.0977,-93.30173 45.4586,-386.03626 -136.5333,-331.72083 -178.8014,14.28981 -234.2413,314.14363 -50.9032,365.39923 62.7499,20.9495 136.3622,9.0371 187.4365,-33.6784 z"
       style="fill:url(#linearGradient53);fill-opacity:1;fill-rule:nonzero;stroke:none;filter:url(#filter5503)"
       clip-path="url(#clipPath53)"
       transform="matrix(0.13333333,0,0,-0.13333333,0,342.66667)" />
    <path
       id="path54"
       d="m 2010.39,982.449 c -83.7775,-96.13964 -228.2189,-186.39023 -356.1762,-124.9632 -116.1279,80.20952 -56.9385,246.442 15.8123,336.1804 73.804,86.4208 172.0085,166.562 286.3334,185.6933 184.0336,1.5021 212.1951,-231.8544 98.9554,-339.405 -13.7431,-20.091 -28.8283,-39.251 -44.9249,-57.5055 z"
       style="fill:url(#linearGradient55);fill-opacity:1;fill-rule:nonzero;stroke:none;filter:url(#filter5504)"
       clip-path="url(#clipPath55)"
       transform="matrix(0.13333333,0,0,-0.13333333,0,342.66667)" />
    <path
       style="font-size:23.5719px;line-height:0%;font-family:'roboto condensed';-inkscape-font-specification:'roboto condensed, ';text-align:center;letter-spacing:4px;word-spacing:0px;text-anchor:middle;fill:#ffffff;stroke-width:1.19607"
       d="m -9.3320293,257.68563 q -1.3611317,0.34507 -1.9791567,1.26856 -0.618013,0.9236 -0.860038,3.49863 -0.255368,2.57848 -1.211358,4.29771 -0.956,1.71936 -3.184515,2.28414 -2.268568,0.57507 -4.158692,-0.55068 -1.890124,-1.12573 -2.536159,-3.67456 -0.720446,-2.84235 0.702235,-4.79349 1.422681,-1.95127 3.691238,-2.52623 l 0.622353,2.45542 q -1.628028,0.41264 -2.492641,1.48385 -0.864602,1.07131 -0.414763,2.84604 0.409269,1.6147 1.506106,2.132 1.080108,0.50738 2.427885,0.16578 1.227695,-0.31122 1.821858,-1.38494 0.590777,-1.0871 0.791235,-3.0977 0.21028,-3.09243 1.283559,-4.68524 1.073257,-1.59281 3.3418136,-2.16788 2.3753173,-0.60198 4.1821836,0.58739 1.8034686,1.1761 2.4697994,3.80493 0.385587,1.52129 0.080286,3.11828 -0.305312,1.59699 -1.3796897,2.84917 -1.0910966,1.24235 -3.0260395,1.73274 l -0.6223528,-2.45541 q 1.9883176,-0.50391 2.618385,-1.82819 0.6266923,-1.33758 0.2343327,-2.88553 -0.4058716,-1.6013 -1.4429319,-2.21895 -1.050404,-0.6143 -2.4649218,-0.25584 z m -17.4598997,-10.69262 19.7246441,-3.56334 0.4503093,2.49273 -19.7246674,3.56321 z m 7.005175,-24.07523 7.433944,-0.78415 q 0.472747,0.2824 1.200649,0.8839 0.726456,0.58788 1.3586205,1.72557 0.6321755,1.13759 0.8357841,3.06792 0.3263366,3.09412 -1.5495806,5.25757 -1.877352,2.14994 -6.094028,2.59464 l -3.737503,0.39422 q -4.175601,0.4404 -6.446412,-1.00888 -2.272246,-1.46304 -2.626021,-4.81717 -0.30613,-2.9024 1.141847,-4.66098 1.447978,-1.75846 4.307098,-2.21224 l 0.265696,2.51903 q -1.832331,0.34555 -2.778946,1.34511 -0.961764,0.98748 -0.772609,2.78087 0.239703,2.27265 1.860431,3.07066 1.605579,0.78582 4.66001,0.47747 l 3.860725,-0.40714 q 3.176195,-0.33501 4.58246,-1.70153 1.391127,-1.37871 1.175969,-3.41861 -0.18338,-1.73872 -0.777263,-2.38197 -0.593882,-0.64336 -0.900899,-0.92934 l -4.600008,0.48512 0.385542,3.65531 -2.135715,0.22534 z m -10.752232,-22.85177 20.043132,-0.17857 0.02276,2.54668 -15.387596,8.16329 15.459091,-0.13779 0.02265,2.53292 -20.043132,0.17858 -0.02265,-2.53292 15.428534,-8.2048 -15.500388,0.13802 z m 20.289126,-8.00961 -19.413995,-8.15719 0.187159,-2.16704 20.5251629,-4.70774 -0.2227158,2.57849 -5.3605971,1.11223 -0.582816,6.74787 5.090506,2.0149 z m -6.977973,-5.43888 0.469103,-5.43124 -9.300408,1.93261 z m 9.0351281,-27.65303 2.12911,0.37186 -1.7879384,10.23872 -19.7451307,-3.44803 0.435732,-2.49525 17.6160209,3.07618 z m -0.030612,-22.93489 7.4884288,2.39022 -0.7702208,2.41307 -19.0948351,-6.09481 1.942276,-6.08512 q 0.883239,-2.76712 2.991403,-3.71272 2.112335,-0.95877 4.656568,-0.14665 2.7540526,0.879 3.7934116,2.8293 1.0435304,1.93704 0.1775829,4.6953 z m -9.5343151,-3.04316 7.475321,2.38604 1.1720668,-3.67218 q 0.5609159,-1.75727 -0.2281654,-2.86172 -0.7890704,-1.10445 -2.4152814,-1.62354 -1.468834,-0.46886 -2.869885,-0.0634 -1.401062,0.40535 -1.961978,2.16273 z m 26.59811,-20.3442 -8.86930704,0.13491 -1.36735516,3.24817 7.4859394,3.15128 -0.9827774,2.33462 -18.4737708,-7.77686 2.173872,-5.16403 q 1.159038,-2.75323 3.131567,-3.53606 1.9651849,-0.80077 4.73118,0.3636 3.57801848,1.50622 3.69247121,4.95988 l 9.37813779,-0.27917 0.1522635,0.0646 z m -19.219794,-0.39853 6.9911139,2.94305 1.1804093,-2.80408 q 0.6729915,-1.59866 0.00673,-2.81997 -0.6785419,-1.22669 -2.1123015,-1.83022 -1.5986827,-0.67303 -2.8674181,-0.35572 -1.28144,0.31194 -2.0078285,2.03751 z M 11.953218,88.073036 q 3.752046,2.004251 4.796575,4.606781 1.044528,2.602529 -0.42138,5.346793 -1.394569,2.61067 -4.122372,3.27616 -2.7213333,0.65329 -6.3779,-1.23757 L 2.5374933,98.307455 q -3.7399029,-1.997804 -4.7706278,-4.655468 -1.0307249,-2.657553 0.3897694,-5.316776 1.45294529,-2.719985 4.1726188,-3.311681 2.7196511,-0.591808 6.3818917,1.317592 z M 7.6763389,88.628962 Q 4.7621283,87.072287 2.9382965,87.330997 1.1144872,87.589707 0.14802493,89.398992 -0.77303527,91.123251 0,92.831598 q 0.77951648,1.696148 3.6937271,3.25296 l 3.096346,1.653919 q 2.9263658,1.563272 4.7882769,1.262456 1.856249,-0.319474 2.770817,-2.031645 0.972955,-1.821376 0.173143,-3.450312 -0.793309,-1.641248 -3.676762,-3.197096 z M 23.967166,72.634033 25.365223,70.521766 q 2.506948,1.824369 3.106437,4.136131 0.599512,2.311772 -1.125274,4.917767 -1.663977,2.514033 -4.549762,2.733631 -2.889676,0.200458 -6.115467,-1.934528 L 13.59312,78.33079 q -3.214309,-2.127451 -4.1321842,-4.881044 -0.9217666,-2.772723 0.8410092,-5.436017 1.610793,-2.43376 3.93102,-2.796528 2.320227,-0.362769 5.093926,1.307903 l -1.398046,2.112256 q -2.058086,-1.180521 -3.416986,-1.072998 -1.370383,0.10047 -2.396118,1.649859 -1.215697,1.836694 -0.362084,3.639882 0.861227,1.791594 3.214566,3.349236 l 3.110991,2.059163 q 2.192621,1.451184 4.2133,1.715532 2.02827,0.252969 3.25157,-1.595327 1.147319,-1.733465 0.73075,-2.999633 -0.416569,-1.26628 -2.307668,-2.749041 z m 11.60192,-5.181982 -15.686852,-12.477164 6.624253,-8.328238 1.702281,1.353955 -5.04747,6.345864 5.042211,4.010544 4.404742,-5.537799 1.691506,1.345333 -4.404743,5.537809 5.559362,4.421876 5.133149,-6.453521 1.691505,1.345344 z M 49.887787,43.117878 q -1.021675,-0.963188 -2.132631,-0.988911 -1.110955,-0.02635 -3.413532,1.152175 -2.312602,1.168568 -4.276374,1.284826 -1.963761,0.116012 -3.636518,-1.460884 -1.702797,-1.605489 -1.767519,-3.804457 -0.0647,-2.198979 1.739026,-4.112214 2.011529,-2.133427 4.42145,-1.980457 2.409933,0.153105 4.11273,1.758471 l -1.737659,1.84314 q -1.221999,-1.152174 -2.589948,-1.306703 -1.367939,-0.15454 -2.623958,1.177651 -1.1427,1.212098 -0.990425,2.415102 0.151691,1.183627 1.163365,2.137497 0.921509,0.86883 2.146367,0.793836 1.234289,-0.08488 3.038363,-0.995134 2.722107,-1.482414 4.642091,-1.43182 1.919985,0.05024 3.622782,1.655959 1.782948,1.681077 1.749219,3.844051 -0.02433,2.152927 -1.884708,4.126084 -1.076575,1.141893 -2.587885,1.741483 -1.51131,0.59959 -3.14454,0.36528 -1.633814,-0.25381 -3.086198,-1.623184 l 1.737647,-1.843029 q 1.492461,1.407174 2.947974,1.227886 1.464943,-0.189098 2.560424,-1.351085 1.133258,-1.201927 1.097746,-2.408519 -0.04553,-1.215933 -1.107289,-2.217044 z M 64.309941,29.503734 q -0.935861,-1.046805 -2.040593,-1.167133 -1.10471,-0.120318 -3.499302,0.857111 -2.403777,0.967135 -4.370307,0.915588 -1.966519,-0.05147 -3.498787,-1.7654 -1.559784,-1.744823 -1.436865,-3.941291 0.12293,-2.196579 2.08317,-3.94895 2.186028,-1.954375 4.57415,-1.596507 2.388112,0.357857 3.947896,2.102692 l -1.888397,1.68813 q -1.119376,-1.25205 -2.469183,-1.522602 -1.349795,-0.270551 -2.714773,0.9498 -1.241835,1.110193 -1.192654,2.321931 0.05024,1.192251 0.976958,2.228762 0.844126,0.944294 2.070913,0.97384 1.237047,0.0203 3.112112,-0.732477 2.838556,-1.245109 4.747249,-1.031005 1.908681,0.214093 3.468477,1.958804 1.633185,1.826759 1.415235,3.978968 -0.207679,2.142992 -2.229501,3.950621 -1.169982,1.045963 -2.726895,1.51446 -1.556903,0.468621 -3.164231,0.09565 -1.606229,-0.392068 -2.936625,-1.880222 l 1.888385,-1.688254 q 1.367109,1.529184 2.832602,1.474755 1.475741,-0.06335 2.666254,-1.12801 1.231564,-1.100987 1.299011,-2.306267 0.0582,-1.215327 -0.914299,-2.303273 z M 65.689115,9.0811824 77.990243,24.906517 75.990331,26.461043 63.689203,10.635719 Z M 85.182017,-4.566938 96.259679,12.137744 94.137185,13.545276 78.904351,5.0967205 87.448445,17.980911 85.33742,19.380784 74.259771,2.6761131 76.370783,1.2762286 91.660871,9.7362777 83.093947,-3.1822473 Z m 25.348653,-2.6735763 3.51044,6.59968493 q -0.0848,0.54408496 -0.37005,1.44425504 -0.27307,0.89370013 -1.09128,1.90581113 -0.81819,1.0121223 -2.53189,1.9237634 -2.74681,1.4609963 -5.45534,0.5316496 -2.69638,-0.9359176 -4.687584,-4.67926299 L 98.140048,-2.8327555 q -1.971801,-3.7068578 -1.478141,-6.3551932 0.505814,-2.6548053 3.483533,-4.2386423 2.57665,-1.370573 4.74938,-0.686301 2.17272,0.684272 3.66405,3.165397 l -2.23634,1.189615 q -1.00645,-1.569719 -2.28779,-2.073145 -1.27567,-0.522085 -2.86783,0.324733 -2.017577,1.073234 -2.150744,2.8748749 -0.127494,1.7829822 1.302024,4.4997291 l 1.82312,3.42745942 q 1.49986,2.81973978 3.29347,3.61214018 1.79931,0.7736183 3.61026,-0.1895809 1.54357,-0.8211061 1.91774,-1.6126655 0.37419,-0.79155942 0.52444,-1.18326874 l -2.17222,-4.08374326 -3.24511,1.726053 -1.00852,-1.8960109 z m 21.6436,1.215686 -0.68792,-21.0468887 2.04746,-0.734148 12.84301,16.688412 -2.4362,0.873494 -3.24764,-4.4074 -6.3756,2.286049 0.29309,5.466999 z m 2.03096,-8.6109897 5.13159,-1.840034 -5.63722,-7.645525 z m 27.17921,-21.279651 4.91571,19.431846 -2.46901,0.624584 -11.57218,-13.019342 3.79145,14.987599 -2.45566,0.621243 -4.91572,-19.431846 2.45567,-0.621119 11.62234,13.049135 -3.80159,-15.027675 z m 13.89429,17.646229 -3.03271,-19.81315 4.72196,-0.722778 q 3.34754,-0.512397 5.65508,1.279074 2.30545,1.777959 2.92615,5.83312 l 0.51447,3.36119 q 0.62071,4.055161 -1.06096,6.443362 -1.6817,2.38819 -5.23337,2.931804 z m -0.19975,-18.046315 2.37661,15.526673 1.98674,-0.304157 q 2.63995,-0.404033 3.60832,-2.084269 0.97991,-1.695799 0.55722,-4.639321 l -0.53948,-3.524465 q -0.48115,-3.143396 -1.90151,-4.416135 -1.42037,-1.272851 -3.8698,-0.897883 z m 43.66538,8.704642 q 0.0344,2.808135 -1.48898,4.313759 -1.5097,1.50549 -4.07007,1.536831 l -5.97418,0.073 -0.24614,-20.042437 5.7264,-0.07053 q 2.57413,-0.03106 4.049,1.230633 1.47467,1.248462 1.50899,4.042838 0.0168,1.376562 -0.67177,2.472637 -0.67509,1.082204 -1.85164,1.688612 1.45095,0.436573 2.22427,1.748782 0.77315,1.298327 0.79412,3.005239 z m -9.21982,-11.974579 0.078,6.359634 3.22111,-0.03947 q 1.28017,-0.01559 2.09562,-0.879359 0.81545,-0.863559 0.79685,-2.377784 -0.0377,-3.069592 -2.87422,-3.10368 z m 6.68733,12.033191 q -0.0433,-3.523859 -2.88015,-3.585465 l -3.70289,0.04541 0.0886,7.213134 3.44135,-0.04182 q 1.47289,-0.01794 2.27321,-0.991658 0.80016,-0.987364 0.77988,-2.639253 z m 14.95789,-13.779932 -1.14997,20.01086 -2.52885,-0.145322 1.14998,-20.010861 z m 22.02568,14.195088 q -0.55698,4.217224 -2.62606,6.110129 -2.06908,1.892904 -5.15351,1.485519 -2.93429,-0.387527 -4.51641,-2.707181 -1.5685,-2.317749 -1.08413,-6.405686 l 0.48851,-3.698605 q 0.55517,-4.20359 2.68064,-6.102954 2.12546,-1.899352 5.11436,-1.504649 3.05714,0.403786 4.56743,2.741752 1.51027,2.337832 1.01046,6.437611 z m -2.02427,-3.808292 q 0.43262,-3.275555 -0.4509,-4.891921 -0.8835,-1.616377 -2.91705,-1.884888 -1.93799,-0.255963 -3.26545,1.068323 -1.3138,1.326203 -1.74642,4.601646 l -0.45965,3.480329 q -0.43442,3.289067 0.50189,4.926379 0.95175,1.625336 2.8761,1.879505 2.0472,0.270304 3.29095,-1.05111 1.25741,-1.319745 1.70006,-4.566246 z m 18.64176,11.912154 8.92898,-14.651272 3.14429,0.76106 -4.71585,19.481363 -2.44854,-0.592772 1.8397,-7.599832 2.05421,-7.491232 -8.75085,13.915319 -1.87319,-0.453427 -1.41147,-16.403754 -1.60576,7.628179 -1.83971,7.599842 -2.44854,-0.592773 4.71587,-19.48124 3.15767,0.764401 z m 16.05934,8.353233 6.63792,-18.912867 10.04096,3.524105 -0.72031,2.052334 -7.65089,-2.685182 -2.13361,6.079158 6.67666,2.343215 -0.71576,2.039427 -6.67667,-2.343349 -2.35245,6.702667 7.78078,2.7308639 -0.71577,2.0393038 z m 17.61684,6.5614029 8.28085,-18.2534659 4.35023,1.973516 q 3.08402,1.399156 4.03851,4.160172 0.96019,2.748446 -0.73465,6.4843687 l -1.40479,3.0966264 q -1.69485,3.7359334 -4.40791,4.8178913 -2.71307,1.08209236 -5.98514,-0.4023506 z m 9.689,-15.2260929 -6.48933,14.3042814 1.83035,0.8303121 q 2.43212,1.103375 4.16096,0.2248575 1.74706,-0.8853238 3.00062,-3.5818646 l 1.47302,-3.2470954 q 1.31381,-2.895922 0.81913,-4.737875 -0.49467,-1.841952 -2.75128,-2.865668 z m 21.01411,7.95733 -9.58383,17.6042467 -2.22471,-1.2111447 9.58382,-17.604235 z m 10.29638,22.203739 2.13161,1.368297 q -1.78912,2.532201 -4.09232,3.164085 -2.30318,0.631772 -4.93293,-1.056481 -2.53708,-1.628577 -2.79703,-4.5110997 -0.24091,-2.8864805 1.84884,-6.1418291 l 2.0005,-3.11636152 q 2.08231,-3.24374298 4.82284,-4.20000128 2.75956,-0.9604409 5.44726,0.7648945 2.45598,1.5765367 2.8512,3.89152726 0.39522,2.31487844 -1.2366,5.11165364 l -2.1316,-1.3683083 q 1.15169,-2.0744683 1.0251,-3.4316419 -0.11913,-1.36890262 -1.68313,-2.3728841 -1.85357,-1.1898509 -3.6446,-0.311098 -1.77944,0.88616489 -3.304,3.2610786 l -2.01536,3.1394494 q -1.42043,2.2127266 -1.65652,4.2369599 -0.22449,2.0315216 1.64068,3.2289076 1.74929,1.122998 3.00959,0.688701 1.26028,-0.434296 2.71647,-2.345849 z m 4.12307,10.541683 17.42449,-11.8250738 1.71439,1.3386498 -7.24658,19.771997 -2.03992,-1.592807 1.99094,-5.099925 -5.33852,-4.168301 -4.46488,3.168267 z m 8.36425,-2.883251 4.29685,3.355101 3.45171,-8.849841 z m 18.2547,22.64963 -1.47208,1.582525 -7.61017,-7.07907 13.65186,-14.67602 1.85465,1.725212 -12.17977,13.093507 z m 10.58103,14.258711 19.60147,-7.695995 1.3774,1.683476 -11.42435,17.689758 -1.63892,-2.003062 3.06554,-4.53597 -4.28906,-5.242018 -5.05316,2.106874 z m 8.79393,-0.96977 3.45217,4.219142 5.31652,-7.871941 z m 13.11996,16.434961 -6.51251,4.401905 -1.41847,-2.098632 16.60633,-11.224396 3.57703,5.292129 q 1.62662,2.40649 1.06435,4.647575 -0.55455,2.252432 -2.7672,3.747999 -2.39516,1.619001 -4.5702,1.228132 -2.16733,-0.37952 -3.79765,-2.76687 z m 8.29177,-5.604427 -6.50111,4.394123 2.15855,3.193508 q 1.03302,1.528343 2.38889,1.592213 1.35586,0.06335 2.77014,-0.89203 1.27741,-0.863323 1.82626,-2.214644 0.54884,-1.35132 -0.48419,-2.879662 z m 2.96998,23.464036 -6.88291,3.796687 -1.22346,-2.217874 17.55083,-9.681349 3.08524,5.593191 q 1.40299,2.543321 0.64095,4.724595 -0.75541,2.193227 -3.09392,3.483189 -2.53136,1.396419 -4.66231,0.810935 -2.12428,-0.573272 -3.53268,-3.098061 z m 8.76337,-4.834034 -6.87087,3.790115 1.86179,3.37518 q 0.891,1.615301 2.23558,1.80117 1.34458,0.18587 2.83929,-0.638589 1.35006,-0.74479 2.01852,-2.041087 0.66846,-1.296309 -0.22252,-2.911595 z m -1.20065,33.107712 -1.97492,0.87815 -4.22257,-9.49728 18.31524,-8.1432 1.02909,2.31464 -16.34031,7.26505 z m 20.54369,3.74406 -18.81837,6.90133 -0.87213,-2.37815 18.81836,-6.90133 z m -6.92259,23.48197 0.69714,2.4352 q -3.01571,0.72016 -5.1625,-0.32629 -2.1468,-1.04644 -3.00687,-4.05073 -0.82975,-2.89843 0.87846,-5.23472 1.72525,-2.32672 5.44422,-3.39146 l 3.56015,-1.01917 q 3.70574,-1.06092 6.39527,0.0311 2.70654,1.10099 3.58554,4.17142 0.80324,2.80586 -0.42863,4.80521 -1.23187,1.99935 -4.30414,3.02212 l -0.69715,-2.43521 q 2.23471,-0.7973 3.03589,-1.90007 0.81444,-1.10673 0.30295,-2.89342 -0.60622,-2.11752 -2.5315,-2.64032 -1.92147,-0.50953 -4.63461,0.2672 l -3.58663,1.02671 q -2.52785,0.72374 -4.04179,2.08786 -1.51016,1.37739 -0.90016,3.50819 0.57211,1.99851 1.80528,2.50457 1.23317,0.50618 3.58908,0.0323 z m -3.89478,10.64503 20.90173,2.56174 0.41009,2.13606 -18.46717,10.11972 -0.48795,-2.54178 4.85506,-2.53004 -1.27698,-6.65158 -5.44683,-0.55235 z m 8.19545,3.33297 1.02782,5.35373 8.42251,-4.39257 z m 12.98646,14.02967 2.16336,-0.22559 1.3523,12.96649 -2.16337,0.22557 -0.54691,-5.24405 -17.77243,1.85344 -0.2599,-2.4919 17.77243,-1.85355 z m 4.06462,24.49432 -20.03146,0.70652 -0.0894,-2.53136 20.03146,-0.70665 z m -12.08297,23.23762 q -4.25079,-0.16051 -6.32878,-2.04361 -2.07801,-1.88321 -1.96062,-4.99216 0.11168,-2.95764 2.2733,-4.74959 2.16111,-1.7782 6.27643,-1.67798 l 3.72805,0.14079 q 4.23704,0.15991 6.32672,2.09862 2.08966,1.93871 1.97593,4.95137 -0.11638,3.08144 -2.30289,4.80366 -2.18656,1.72211 -6.31511,1.60752 z m 3.60248,-2.37121 q 3.30158,0.12463 4.82833,-0.90615 1.52675,-1.03064 1.60413,-3.08035 0.0738,-1.95342 -1.36886,-3.15129 -1.44312,-1.18424 -4.74472,-1.30886 l -3.50794,-0.1324 q -3.31535,-0.12523 -4.85793,0.95995 -1.52934,1.09956 -1.60256,3.03922 -0.0778,2.06347 1.35405,3.17832 1.43145,1.12862 4.70501,1.26593 z m 5.4843,26.40134 -19.86309,-2.68637 0.34134,-2.52383 16.39586,-5.88144 -15.32023,-2.07195 0.33948,-2.5102 19.86309,2.68638 -0.33948,2.51007 -16.44233,5.91696 15.36116,2.07746 z m -18.60617,15.99063 q 1.36818,0.316 2.34023,-0.22259 0.97206,-0.53847 2.36532,-2.71759 1.40666,-2.17589 3.0433,-3.26743 1.63662,-1.09142 3.87668,-0.57423 2.28029,0.52651 3.44604,2.39226 1.16575,1.86563 0.57418,4.42761 -0.65971,2.85717 -2.8174,3.9413 -2.15771,1.08423 -4.43801,0.55772 l 0.56989,-2.46809 q 1.63645,0.37784 2.89536,-0.17917 1.25891,-0.55702 1.67084,-2.34108 0.37474,-1.62306 -0.36394,-2.58482 -0.72836,-0.94526 -2.08312,-1.25803 -1.23403,-0.2849 -2.25358,0.39806 -1.02264,0.69635 -2.12072,2.3925 -1.60174,2.65371 -3.28478,3.57911 -1.68304,0.92529 -3.96334,0.39878 -2.38761,-0.55128 -3.45015,-2.43556 -1.06567,-1.87089 -0.45552,-4.51337 0.35307,-1.52906 1.35515,-2.80945 1.00206,-1.2804 2.53029,-1.90247 1.53856,-0.60545 3.48352,-0.15633 l -0.56989,2.46809 q -1.9986,-0.46157 -3.1647,0.42784 -1.16919,0.90267 -1.52846,2.45864 -0.37166,1.60955 0.26795,2.63327 0.65303,1.02671 2.07486,1.35503 z"
       id="text6420"
       aria-label="SIGNAL PROCESSING AND BIOMEDICAL APPLICATIONS" />
    <path
       style="font-size:23.4089px;line-height:0%;font-family:'roboto condensed';-inkscape-font-specification:'roboto condensed, ';letter-spacing:4.09688px;word-spacing:0px;fill:#ffffff;stroke-width:1.19607"
       d="m 8.9426972,306.20603 q 1.6893188,-0.87027 3.4239388,-0.51814 1.746763,0.34578 2.660838,2.12028 0.914063,1.77437 0.181541,3.39731 -0.720378,1.61685 -2.409708,2.48711 -2.102535,1.08304 -4.0290346,1.04513 -1.9080874,-0.0323 -3.6533822,-0.25561 -0.8639964,1.36771 -0.237932,2.58316 0.5133833,0.99657 1.6683164,1.95486 l -1.6911689,1.22489 q -1.1486761,-0.94621 -1.8123158,-2.23438 -0.6010366,-1.16676 -0.5085729,-2.12171 0.092396,-0.95494 0.5454418,-1.92651 -1.0540371,-0.1952 -1.8852462,-0.67434 -0.83120915,-0.47915 -1.42598881,-1.63371 -0.6511258,-1.26402 -0.77337169,-2.78494 l 1.98541339,-0.65377 q 0.0972181,1.47248 0.62312651,2.49333 0.6323326,1.22752 2.241365,1.30599 0.651507,-1.24295 1.4746315,-2.45135 0.8415365,-1.20241 1.6392519,-1.98249 0.8039724,-0.76787 1.9828568,-1.37511 z m 47.2311428,51.06455 1.709278,1.84565 -10.281066,9.5218 q -2.467467,2.28521 -4.763956,1.87784 -2.286464,-0.41659 -3.930717,-2.19193 -1.755723,-1.89576 -1.930985,-4.1372 -0.165226,-2.25064 2.30223,-4.53586 l 10.281066,-9.52179 1.699983,1.83548 -10.281067,9.5218 q -1.715176,1.5885 -1.668215,2.88659 0.05696,1.28889 1.171753,2.4925 1.124029,1.21365 2.404718,1.36926 1.290724,0.14616 3.005912,-1.44234 z m 16.319118,15.48684 -13.345399,14.76896 -1.876556,-1.69567 4.379524,-16.73482 -10.293188,11.39126 -1.866408,-1.68658 13.34541,-14.76896 1.866408,1.68657 -4.376597,16.79272 10.320694,-11.42163 z m 8.172992,6.51667 -12.266805,15.6763 -1.981085,-1.55023 12.266816,-15.67629 z m 17.066466,12.09395 -16.295236,12.99507 -1.809546,-1.22885 6.071332,-19.93862 2.261921,1.53612 -5.29683,15.85379 12.806418,-10.75362 z m -4.663363,20.39671 9.801417,-17.32496 9.19794,5.20362 -1.06363,1.8801 -7.00851,-3.96509 -3.15045,5.56878 6.11609,3.46012 -1.05688,1.86814 -6.116098,-3.46011 -3.473579,6.1399 7.127517,4.03232 -1.05688,1.86814 z m 25.226327,12.99171 0.18656,-8.80702 -3.17414,-1.47428 -3.39791,7.31541 -2.28141,-1.05972 8.38532,-18.05289 5.0464,2.34394 q 2.69058,1.24978 3.39617,3.23561 0.72372,1.97925 -0.53176,4.68225 -1.62409,3.49648 -5.05577,3.48523 l -0.0617,9.31727 -0.0692,0.14879 z m 1.08991,-19.05986 -3.17331,6.83184 2.74019,1.27285 q 1.56226,0.72566 2.79836,0.10888 1.24187,-0.62914 1.89266,-2.03021 0.72566,-1.56231 0.4566,-2.83289 -0.26327,-1.28302 -1.94954,-2.06622 z m 18.22085,21.30154 q 0.48285,-1.30826 0.0742,-2.33342 -0.40857,-1.02515 -2.38046,-2.67094 -1.96716,-1.65871 -2.83711,-3.40797 -0.86995,-1.74925 -0.0794,-3.89105 0.80474,-2.18031 2.78894,-3.09471 1.98419,-0.9144 4.43386,-0.012 2.73184,1.00829 3.52926,3.26994 0.7974,2.26165 -0.007,4.44197 l -2.35991,-0.87099 q 0.57752,-1.56469 0.18669,-2.87475 -0.39084,-1.31018 -2.09664,-1.93966 -1.55188,-0.5728 -2.59201,0.0346 -1.02257,0.59899 -1.50067,1.89434 -0.43551,1.17991 0.10944,2.27001 0.55772,1.09477 2.09096,2.38928 2.41331,1.91083 3.11377,3.68497 0.70047,1.77401 -0.10428,3.95444 -0.8426,2.28295 -2.83213,3.09329 -1.97672,0.81512 -4.50335,-0.11722 -1.46212,-0.53955 -2.59776,-1.68742 -1.13564,-1.14774 -1.5567,-2.73122 -0.4035,-1.59162 0.28288,-3.45139 l 2.35991,0.87098 q -0.70533,1.91109 0.0246,3.17139 0.74262,1.26496 2.23039,1.81408 1.53906,0.56813 2.62773,0.0669 1.09342,-0.51455 1.59519,-1.874 z m 16.62606,-10.30379 -5.66566,19.08199 -2.41146,-0.71597 5.66565,-19.08199 z m 3.27302,21.56563 4.36775,-19.42023 4.6283,1.04094 q 3.28117,0.73797 4.76656,3.22998 1.48838,2.47874 0.59443,6.4534 l -0.74097,3.29457 q -0.89393,3.97466 -3.31361,5.57441 -2.41966,1.59975 -5.9009,0.8168 z m 6.34798,-16.7609 -3.4228,15.21881 1.94737,0.43788 q 2.58757,0.58201 4.09131,-0.62124 1.52005,-1.21354 2.1947,-4.08853 l 0.77695,-3.45449 q 0.69296,-3.08119 -0.1598,-4.77232 -0.85278,-1.69112 -3.25363,-2.23115 z m 12.28213,20.69167 9.02994,-18.86251 2.14044,0.29052 3.67722,20.58665 -2.54685,-0.34555 -0.84403,-5.37107 -6.66517,-0.90435 -2.24471,4.95185 z m 5.73224,-6.65853 5.36466,0.72793 -1.46731,-9.31858 z m 16.71723,9.29766 0.9532,-19.88253 4.73847,0.22726 q 3.35927,0.16099 5.25216,2.35948 1.89355,2.18499 1.69845,6.25426 l -0.16169,3.37291 q -0.19509,4.0694 -2.30263,6.06241 -2.10752,1.99313 -5.67162,1.82222 z m 3.36238,-17.60448 -0.74696,15.58109 1.9937,0.0956 q 2.64917,0.1269 3.92289,-1.31759 1.28801,-1.45741 1.45672,-4.40573 l 0.16955,-3.53677 q 0.15124,-3.1544 -0.9804,-4.67317 -1.13164,-1.51877 -3.58964,-1.63658 z m 28.83062,17.77647 -1.70364,-19.83228 4.7265,-0.40607 q 3.35079,-0.28777 5.51966,1.63898 2.1677,1.91323 2.51639,5.97234 l 0.28902,3.3643 q 0.34867,4.0591 -1.47459,6.31513 -1.82328,2.25603 -5.37839,2.5615 z m 0.98751,-17.89549 1.33507,15.54162 1.98867,-0.1708 q 2.64249,-0.22701 3.71243,-1.82831 1.0824,-1.61601 0.8569,-4.5605 l -0.30304,-3.52793 q -0.27031,-3.14638 -1.59414,-4.50093 -1.32386,-1.35443 -3.77566,-1.1438 z m 19.77588,15.68934 -3.32896,-19.625 10.41903,-1.76744 0.36125,2.12972 -7.93894,1.34666 1.07001,6.30795 6.92804,-1.17514 0.35897,2.11622 -6.92804,1.17514 1.17976,6.95503 8.07374,-1.36962 0.35896,2.1162 z m 38.4749,-19.40983 2.1832,7.09509 q -0.18493,0.51466 -0.63222,1.33887 -0.43419,0.82016 -1.42223,1.65345 -0.98803,0.83331 -2.83044,1.40012 -2.95306,0.90866 -5.41965,-0.50653 -2.45354,-1.41914 -3.69189,-5.44368 l -1.09763,-3.56727 q -1.22629,-3.98532 -0.24732,-6.47493 0.99205,-2.49381 4.19337,-3.47889 2.77012,-0.85233 4.76029,0.22318 1.99017,1.07539 2.97823,3.77516 l -2.40426,0.73989 q -0.68651,-1.71983 -1.84141,-2.45159 -1.14585,-0.74874 -2.85759,-0.22211 -2.16906,0.66741 -2.63743,2.39932 -0.45934,1.71469 0.4242,4.63262 l 1.13382,3.68486 q 0.93278,3.03143 2.53295,4.14103 1.60922,1.09261 3.55615,0.4935 1.65947,-0.5106 2.17309,-1.21222 0.51361,-0.70162 0.73372,-1.05542 l -1.35092,-4.39028 -3.48879,1.07347 -0.62722,-2.03847 z m 20.23404,2.84102 -6.30457,-6.15235 -3.24499,1.31102 3.02151,7.47866 -2.33233,0.94239 -7.4565,-18.45596 5.15905,-2.0844 q 2.75065,-1.11126 4.68297,-0.27006 1.93987,0.82349 3.05629,3.58677 1.44419,3.57458 -0.90818,6.07316 l 6.76243,6.40975 0.0614,0.15214 z m -13.17539,-13.8158 2.82179,6.98433 2.80135,-1.13173 q 1.59715,-0.64528 1.99115,-1.96933 0.38888,-1.33672 -0.18982,-2.76902 -0.64526,-1.59723 -1.757,-2.26858 -1.11685,-0.68416 -2.84075,0.012 z m 21.09562,10.36765 -3.26929,-20.65541 1.9272,-0.97553 14.71057,14.86381 -2.29313,1.16079 -3.74296,-3.94345 -6.00118,3.0379 0.96193,5.3511 z m 0.94112,-8.7355 4.83023,-2.44513 -6.49638,-6.83996 z m 19.53165,-25.59148 10.55489,16.87643 -2.14434,1.34115 -14.89844,-8.7904 8.1409,13.01672 -2.13276,1.33386 -10.55489,-16.87655 2.13276,-1.33387 14.95497,8.80344 -8.16265,-13.05152 z m 17.10921,12.41473 -6.92642,-19.73217 1.72062,-1.30587 17.14126,11.9796 -2.04733,1.55382 -4.39042,-3.20691 -5.3579,4.06641 1.90751,5.09131 z m -0.64334,-8.76241 4.31246,-3.27292 -7.61939,-5.56185 z m 18.39986,-5.22455 -13.35664,-14.7588 3.51738,-3.18322 q 2.49358,-2.25663 5.38624,-2.03499 2.88349,0.21158 5.61719,3.23226 l 2.26585,2.50373 q 2.73372,3.02068 2.64719,5.92007 -0.0865,2.8994 -2.73215,5.29369 z m -10.04211,-14.84515 10.46699,11.56576 1.47993,-1.33925 q 1.96649,-1.77975 1.84941,-3.70195 -0.11614,-1.9417 -2.07731,-4.14952 l -2.37593,-2.62538 q -2.1191,-2.34142 -3.99266,-2.61879 -1.87358,-0.27737 -3.69817,1.3738 z m 23.98859,1.88261 -10.21469,-18.24808 1.4706,-1.58217 18.9451,8.85522 -1.74982,1.88263 -4.87626,-2.40459 -4.57927,4.92674 2.75414,4.68764 z m -2.13974,-8.52152 3.68576,-3.96545 -8.46192,-4.16951 z m 33.7132,-51.50567 q -1.68854,-0.87182 -2.40744,-2.48926 -0.73105,-1.62367 0.18464,-3.3972 0.91569,-1.77354 2.66276,-2.11776 1.73494,-0.35057 3.42348,0.52125 2.10155,1.08495 3.18766,2.67657 1.08023,1.57318 1.91004,3.12485 1.61538,-0.0897 2.24256,-1.30396 0.51428,-0.99609 0.62539,-2.49273 l 1.97855,0.66764 q -0.10473,1.48444 -0.76963,2.77214 -0.60211,1.16617 -1.43376,1.64459 -0.83164,0.47831 -1.88586,0.67256 0.45212,0.97204 0.54371,1.92699 0.0916,0.95506 -0.50426,2.10915 -0.65227,1.26328 -1.82062,2.2449 l -1.68378,-1.23865 q 1.14326,-0.93294 1.6701,-1.9533 0.63345,-1.22694 -0.23558,-2.58339 -1.39044,0.18993 -2.8522,0.21983 -1.46761,0.012 -2.56566,-0.1861 -1.09178,-0.2098 -2.2701,-0.81812 z"
       id="text6428"
       aria-label="    UNIVERSIDAD DE GRANADA       " />
    <path
       style="font-weight:500;font-size:100px;line-height:1.25;font-family:Roboto;-inkscape-font-specification:'Roboto Medium';letter-spacing:0px;word-spacing:0px;fill:#ffffff;stroke-width:0.726314"
       d="m 143.81618,358.84292 q 0,-2.97978 -2.10539,-4.81616 -2.06909,-1.83637 -9.61945,-4.05388 -7.51405,-2.25217 -12.23302,-5.71702 -4.68267,-3.49952 -4.68267,-9.56302 0,-6.09816 5.15457,-10.01344 5.19086,-3.94995 13.57612,-3.94995 8.96604,0 14.01171,4.57362 5.04566,4.53897 5.04566,10.84501 h -9.14753 q 0,-3.7074 -2.43209,-6.0635 -2.43209,-2.39076 -7.58665,-2.39076 -4.82787,0 -7.15106,2.00962 -2.28689,1.97496 -2.28689,4.95475 0,2.84119 2.75878,4.71222 2.75879,1.83637 8.31266,3.39556 8.96604,2.4947 13.24941,6.23674 4.31968,3.74205 4.31968,9.77092 0,6.37534 -5.11827,10.08274 -5.08197,3.7074 -13.68502,3.7074 -5.08196,0 -9.83724,-1.76708 -4.71897,-1.76708 -7.80445,-5.30123 -3.04918,-3.53417 -3.04918,-8.87005 h 9.18384 q 0,4.7815 3.30328,6.89507 3.33958,2.11356 8.20375,2.11356 4.79157,0 7.18736,-1.87102 2.43209,-1.87102 2.43209,-4.9201 z m 16.4438,-34.23283 q 0,-1.94032 1.30679,-3.18767 1.34309,-1.282 3.70258,-1.282 2.35948,0 3.66627,1.282 1.34309,1.24735 1.34309,3.18767 0,1.94032 -1.34309,3.22232 -1.30679,1.24736 -3.66627,1.24736 -2.35949,0 -3.70258,-1.24736 -1.30679,-1.282 -1.30679,-3.22232 z m 9.36533,9.77091 v 37.4898 h -8.82084 V 334.381 Z m 19.67449,18.74489 v 18.74491 h -9.14755 v -50.44838 h 20.21898 q 9.18384,0 14.19321,4.53897 5.04568,4.53897 5.04568,11.50334 0,7.31086 -5.04568,11.50334 -5.00937,4.15782 -14.19321,4.15782 z m 0,-24.6698 v 17.63614 h 11.07143 q 5.33607,0 7.65926,-2.39075 2.35948,-2.39076 2.35948,-6.16746 0,-3.53415 -2.35948,-6.30604 -2.32319,-2.77189 -7.65926,-2.77189 z m 76.08434,28.68905 q 0,7.24156 -4.90047,10.9836 -4.86417,3.74206 -13.39463,3.74206 h -19.38408 v -50.44838 h 18.0773 q 8.63934,0 13.50352,3.29163 4.86416,3.29161 4.86416,10.35992 0,3.43021 -1.96018,6.23675 -1.96019,2.7719 -5.73536,4.26179 4.53746,1.1434 6.71545,4.40037 2.21429,3.22232 2.21429,7.17226 z m -28.53163,-28.68905 v 14.17128 h 9.00234 q 4.31967,0 6.71547,-1.83638 2.39578,-1.87101 2.39578,-5.23193 0,-6.92973 -8.74824,-7.10297 z m 19.38408,28.6544 q 0,-7.76129 -8.24006,-8.00383 h -11.14402 v 15.76512 h 10.23653 q 4.50118,0 6.82437,-2.14822 2.32318,-2.1482 2.32318,-5.61307 z m 13.64872,14.76031 19.96487,-50.44838 h 8.24006 l 20.03747,50.44838 h -9.58314 l -4.31968,-11.78053 h -20.47306 l -4.28337,11.78053 z m 16.44379,-18.8142 h 15.35481 l -7.69554,-20.99706 z"
       id="flowRoot6438"
       aria-label="SiPBA" />
  </g>
</svg>
