<?xml version="1.0" encoding="UTF-8" standalone="no"?>
<svg
   width="800"
   height="500"
   viewBox="0 0 800 500"
   version="1.1"
   id="svg20"
   sodipodi:docname="imagen.svg"
   xml:space="preserve"
   inkscape:version="1.4.2 (ebf0e940d0, 2025-05-08)"
   xmlns:inkscape="http://www.inkscape.org/namespaces/inkscape"
   xmlns:sodipodi="http://sodipodi.sourceforge.net/DTD/sodipodi-0.dtd"
   xmlns="http://www.w3.org/2000/svg"
   xmlns:svg="http://www.w3.org/2000/svg"><sodipodi:namedview
     id="namedview20"
     pagecolor="#ffffff"
     bordercolor="#000000"
     borderopacity="0.25"
     inkscape:showpageshadow="2"
     inkscape:pageopacity="0.0"
     inkscape:pagecheckerboard="0"
     inkscape:deskcolor="#d1d1d1"
     showguides="true"
     inkscape:zoom="0.82554717"
     inkscape:cx="412.45372"
     inkscape:cy="339.77465"
     inkscape:window-width="1854"
     inkscape:window-height="1011"
     inkscape:window-x="1045"
     inkscape:window-y="32"
     inkscape:window-maximized="1"
     inkscape:current-layer="g5"><sodipodi:guide
       position="499.87892,352.97193"
       orientation="0,-1"
       id="guide20"
       inkscape:locked="false" /></sodipodi:namedview><defs
     id="defs2"><linearGradient
       id="commitBlockGrad"
       x1="0%"
       y1="0%"
       x2="100%"
       y2="0%"><stop
         offset="0%"
         style="stop-color:#e0f7fa;stop-opacity:0.9"
         id="stop1" /><stop
         offset="100%"
         style="stop-color:#b2ebf2;stop-opacity:0.6"
         id="stop2" /></linearGradient><style
       id="style2">
      .label-text { font-family: sans-serif; font-size: 16px; fill: white; text-anchor: middle; font-weight: bold;}
      .commit-text { font-family: sans-serif; font-size: 12px; fill: #37474f; alignment-baseline: middle; }
      .lane-line { stroke-width: 8px; stroke-linecap: round; }
    </style></defs><g
     transform="translate(100, 50)"
     id="g3"><path
       d="m -30,-6.1563169 h 20 L 0,-16.156317 H 30 L 40,-6.1563169 V 38.843683 H -40 V 3.8436831 Z"
       fill="none"
       stroke="#f4d03f"
       stroke-width="3"
       id="path2" /><line
       x1="-40"
       y1="13.843683"
       x2="40"
       y2="13.843683"
       stroke="#f4d03f"
       stroke-width="3"
       id="line2" /><text
       x="0"
       y="68.843681"
       class="label-text"
       id="text2"
       style="fill:#0f0f0f;fill-opacity:1">/localWorkingDir</text><line
       x1="-0.1115016"
       y1="99.160446"
       x2="-0.1115016"
       y2="420.11151"
       stroke="#f4d03f"
       class="lane-line"
       id="line3" /></g><g
     transform="translate(300, 50)"
     id="g6"><g
       stroke="#3498DB"
       stroke-width="3"
       fill="none"
       id="g5"><rect
         x="-25"
         y="-11.156317"
         width="50"
         height="20"
         rx="2"
         id="rect3" /><rect
         x="-25"
         y="13.843683"
         width="50"
         height="20"
         rx="2"
         id="rect4" /><path
         d="m 10,23.843683 h 20 l 5,20 -15,15 -15,-15 z"
         fill="#222222"
         id="path4"
         style="fill:#ffffff;fill-opacity:1" /><path
         d="m 12.216274,40.415417 7,8 8,-18"
         stroke="#00ff00"
         stroke-width="4"
         id="path5" /></g><text
       x="0"
       y="68.843681"
       class="label-text"
       id="text5"
       style="fill:#0f0f0f;fill-opacity:1">Staging Area</text><line
       x1="0.1115016"
       y1="99.160446"
       x2="0.1115016"
       y2="420.11151"
       stroke="#3498db"
       class="lane-line"
       id="line5" /></g><g
     transform="translate(500, 50)"
     id="g9"><g
       fill="none"
       stroke="#1ABC9C"
       stroke-width="3"
       id="g8"><ellipse
         cx="0"
         cy="-30"
         rx="25"
         ry="8"
         id="ellipse6" /><path
         d="M-25,-30 L-25,0 A25,8 0 0,0 25,0 L25,-30"
         id="path6" /><ellipse
         cx="0"
         cy="0"
         rx="25"
         ry="8"
         id="ellipse7" /><path
         d="M-25,0 L-25,30 A25,8 0 0,0 25,30 L25,0"
         id="path7" /><ellipse
         cx="0"
         cy="30"
         rx="25"
         ry="8"
         id="ellipse8" /></g><text
       x="0"
       y="70"
       class="label-text"
       id="text8"
       style="fill:#0f0f0f;fill-opacity:1">Repositorio local</text><line
       x1="0"
       y1="100"
       x2="0"
       y2="420"
       stroke="#1ABC9C"
       class="lane-line"
       id="line8" /></g><g
     transform="translate(700, 50)"
     id="g10"><text
       x="0"
       y="70"
       class="label-text"
       id="text9"
       style="fill:#0f0f0f;fill-opacity:1">Repositorio remoto</text><line
       x1="0"
       y1="100"
       x2="0"
       y2="420"
       stroke="#BDC3C7"
       class="lane-line"
       id="line9"
       style="stroke:#2e3235;stroke-opacity:1" /><g
       style="fill:#252525;fill-opacity:1"
       id="g20"
       transform="matrix(0.06853247,0,0,0.06853247,-35.133335,-25.400649)"><path
         fill-rule="evenodd"
         clip-rule="evenodd"
         d="M 8,0 C 3.58,0 0,3.58 0,8 c 0,3.54 2.29,6.53 5.47,7.59 0.4,0.07 0.55,-0.17 0.55,-0.38 0,-0.19 -0.01,-0.82 -0.01,-1.49 C 4,14.09 3.48,13.23 3.32,12.78 3.23,12.55 2.84,11.84 2.5,11.65 2.22,11.5 1.82,11.13 2.49,11.12 3.12,11.11 3.57,11.7 3.72,11.94 4.44,13.15 5.59,12.81 6.05,12.6 6.12,12.08 6.33,11.73 6.56,11.53 4.78,11.33 2.92,10.64 2.92,7.58 2.92,6.71 3.23,5.99 3.74,5.43 3.66,5.23 3.38,4.41 3.82,3.31 c 0,0 0.67,-0.21 2.2,0.82 0.64,-0.18 1.32,-0.27 2,-0.27 0.68,0 1.36,0.09 2,0.27 1.53,-1.04 2.2,-0.82 2.2,-0.82 0.44,1.1 0.16,1.92 0.08,2.12 0.51,0.56 0.82,1.27 0.82,2.15 0,3.07 -1.87,3.75 -3.65,3.95 0.29,0.25 0.54,0.73 0.54,1.48 0,1.07 -0.01,1.93 -0.01,2.2 0,0.21 0.15,0.46 0.55,0.38 C 13.71,14.53 16,11.53 16,8 16,3.58 12.42,0 8,0 Z"
         transform="scale(64)"
         fill="#1b1f23"
         id="path1"
         style="fill:#252525;fill-opacity:1" /></g></g></svg>
